{"glyphs":{"0":{"ha":311,"x_min":0,"x_max":269,"o":"m 269 1407 l 269 1403 l 269 1083 l 269 678 q 236 467 269 531 q 135 403 203 403 q 28 469 60 403 q 12 518 17 493 q 4 567 7 543 l 0 588 l 0 592 l 0 1056 l 0 1315 q 8 1444 0 1392 q 33 1528 17 1496 q 135 1592 68 1592 q 242 1525 210 1592 q 258 1476 253 1501 q 265 1428 263 1451 l 269 1407 m 103 1033 l 161 1435 q 156 1461 158 1449 q 149 1482 154 1474 q 144 1490 146 1489 q 135 1492 142 1492 l 132 1492 q 126 1485 131 1492 q 116 1459 121 1478 q 107 1406 111 1440 q 103 1315 103 1372 l 103 1083 l 103 1033 m 167 1115 l 103 676 l 103 599 q 104 590 104 594 q 106 579 104 585 q 111 542 108 560 q 121 513 114 524 q 135 503 125 503 l 138 503 q 143 509 139 503 q 153 534 147 515 q 163 587 158 553 q 167 678 167 621 l 167 1056 l 167 1115 m 167 368 l 269 368 l 269 265 q 261 138 269 189 q 236 53 253 86 q 135 -11 201 -11 q 28 57 60 -11 q 12 105 17 79 q 4 154 7 131 l 0 175 l 0 179 l 0 368 l 118 368 l 103 264 l 103 186 q 104 176 104 181 q 106 167 104 172 q 111 129 108 147 q 121 100 114 111 q 126 92 124 93 q 135 90 128 90 l 138 90 q 143 97 139 90 q 153 122 147 103 q 163 174 158 140 q 167 265 167 208 l 167 368 m 269 1807 l 269 1622 l 129 1622 l 161 1838 q 156 1865 158 1853 q 149 1886 154 1876 q 144 1894 146 1893 q 135 1894 142 1894 l 132 1894 q 126 1888 131 1894 q 116 1863 121 1882 q 107 1810 111 1844 q 103 1719 103 1775 l 103 1622 l 0 1622 l 0 1719 q 8 1847 0 1796 q 33 1932 17 1899 q 135 1996 68 1996 q 242 1929 210 1996 q 258 1881 253 1906 q 265 1832 263 1856 q 267 1820 267 1825 q 269 1810 268 1815 l 269 1807 z "},"1":{"ha":258,"x_min":0,"x_max":217,"o":"m 0 1371 l 114 1579 l 217 1579 l 217 414 l 114 414 l 114 1404 l 69 1329 l 0 1371 m 114 1982 l 217 1982 l 217 1622 l 114 1622 l 114 1808 l 69 1732 l 0 1775 l 114 1982 m 114 1 l 114 368 l 217 368 l 217 1 l 114 1 z "},"2":{"ha":324,"x_min":0,"x_max":282,"o":"m 282 1306 l 282 1293 l 110 517 l 222 517 l 222 414 l 0 414 l 0 517 l 174 1244 q 178 1285 178 1267 q 179 1306 179 1303 l 179 1308 q 175 1401 179 1367 q 165 1455 171 1436 q 155 1481 160 1474 q 150 1488 150 1488 q 147 1489 150 1489 q 142 1486 144 1489 q 135 1476 139 1483 q 128 1454 132 1469 q 117 1380 119 1422 q 115 1306 115 1338 l 13 1315 q 17 1410 13 1371 q 29 1481 21 1450 q 65 1554 43 1529 q 147 1592 96 1592 q 247 1526 215 1592 q 274 1440 265 1492 q 282 1308 282 1388 l 282 1306 m 110 104 l 222 104 l 222 1 l 0 1 l 0 104 l 64 368 l 168 368 l 110 104 m 128 1857 q 117 1783 119 1825 q 115 1708 115 1740 l 13 1718 q 17 1815 13 1775 q 29 1885 21 1854 q 65 1957 42 1932 q 147 1994 96 1994 q 247 1929 215 1994 q 282 1713 282 1864 l 282 1710 l 282 1697 l 265 1622 l 168 1622 l 174 1649 q 178 1688 178 1671 q 179 1710 179 1706 l 179 1713 q 175 1805 179 1769 q 165 1859 171 1840 q 155 1885 160 1878 q 150 1892 150 1892 l 147 1892 q 142 1889 144 1892 q 135 1879 139 1886 q 128 1857 132 1872 z "},"3":{"ha":313,"x_min":0,"x_max":271,"o":"m 181 992 q 247 867 225 944 q 269 685 269 789 l 269 674 q 261 546 269 597 q 236 461 253 494 q 135 397 201 397 q 72 415 99 397 q 28 465 46 433 q 13 501 18 481 q 6 542 8 522 q 0 588 1 564 l 0 692 l 103 704 l 103 594 q 104 576 103 592 q 108 544 106 561 q 117 513 111 526 q 135 499 124 499 q 146 505 140 499 q 156 530 151 511 q 164 583 161 549 q 167 674 167 617 l 167 681 q 148 838 167 782 q 110 917 129 893 q 78 943 93 936 q 63 949 71 947 l 64 949 l 65 1000 l 65 1051 q 117 1074 96 1051 q 147 1129 135 1093 q 164 1214 160 1165 q 166 1251 165 1233 q 167 1283 167 1269 l 167 1306 l 167 1308 q 163 1401 167 1367 q 153 1456 158 1436 q 143 1482 147 1475 q 138 1489 139 1489 l 135 1489 q 131 1486 132 1489 q 124 1476 128 1483 q 115 1454 119 1469 q 105 1380 107 1422 q 103 1306 103 1338 l 0 1317 q 4 1410 0 1371 q 17 1481 8 1450 q 53 1554 29 1529 q 135 1592 83 1592 q 236 1526 203 1592 q 260 1447 251 1494 q 269 1331 268 1400 q 270 1291 269 1329 q 265 1206 271 1253 q 192 1003 253 1071 l 181 992 m 264 368 q 268 322 267 346 q 269 272 269 297 l 269 261 q 261 133 269 185 q 236 49 253 82 q 135 -15 201 -15 q 72 2 99 -15 q 28 51 46 19 q 13 88 18 67 q 6 129 8 110 q 0 174 1 151 l 0 279 l 103 292 l 103 182 q 104 164 103 179 q 108 131 106 149 q 117 100 111 114 q 135 86 124 86 q 146 92 140 86 q 156 117 151 99 q 164 170 161 136 q 167 261 167 204 l 167 267 q 165 322 167 296 q 160 368 163 347 l 264 368 m 0 1719 q 4 1815 0 1775 q 17 1885 8 1854 q 53 1958 31 1933 q 135 1996 83 1996 q 236 1931 203 1996 q 260 1851 251 1899 q 269 1735 268 1804 q 270 1699 269 1732 q 267 1622 271 1667 l 164 1622 q 166 1658 165 1642 q 167 1688 167 1674 l 167 1710 l 167 1713 q 163 1806 167 1771 q 153 1859 158 1840 q 143 1885 147 1878 q 138 1892 139 1892 q 135 1893 138 1893 q 131 1890 132 1893 q 124 1881 128 1888 q 115 1858 119 1874 q 105 1784 107 1826 q 103 1708 103 1742 l 0 1719 z "},"4":{"ha":317,"x_min":0,"x_max":275,"o":"m 172 1579 l 172 1579 l 275 1579 l 275 414 l 172 414 l 172 821 l 0 821 l 0 951 l 151 1579 l 172 1579 m 172 924 l 172 1235 l 99 924 l 172 924 m 172 1 l 172 368 l 275 368 l 275 1 l 172 1 m 172 1983 l 275 1983 l 275 1622 l 172 1622 l 172 1639 l 169 1622 l 64 1622 l 151 1983 l 172 1983 l 172 1983 z "},"5":{"ha":318,"x_min":0,"x_max":276,"o":"m 276 867 l 276 786 l 276 778 l 276 674 q 268 546 276 597 q 243 461 260 494 q 142 397 208 397 q 79 415 106 397 q 35 465 53 433 q 20 501 25 481 q 13 542 15 522 q 7 588 8 564 l 7 692 l 110 704 l 110 594 q 111 576 110 592 q 115 544 113 561 q 124 513 118 526 q 142 499 131 499 q 153 505 147 499 q 163 530 158 511 q 171 583 168 549 q 174 674 174 617 l 174 778 l 174 786 l 174 874 q 171 949 174 917 q 160 1004 168 981 q 146 1030 154 1018 q 126 1042 138 1042 q 115 1039 119 1042 q 108 1033 111 1036 q 103 1026 104 1029 l 103 1017 l 0 1017 l 0 1578 l 14 1578 l 103 1578 l 236 1578 l 236 1475 l 103 1475 l 103 1140 q 183 1128 146 1149 q 276 878 275 1081 l 276 869 l 276 867 m 174 368 l 276 368 l 276 365 l 276 261 q 268 133 276 185 q 243 49 260 82 q 142 -15 208 -15 q 79 2 106 -15 q 35 51 53 19 q 20 88 25 67 q 13 128 15 108 q 7 174 8 150 l 7 279 l 110 292 l 110 182 q 111 164 110 179 q 115 131 113 149 q 124 99 118 113 q 142 85 131 85 q 153 91 147 85 q 163 117 158 97 q 171 170 168 136 q 174 261 174 204 l 174 365 l 174 368 m 103 1622 l 0 1622 l 0 1982 l 14 1982 l 103 1982 l 236 1982 l 236 1879 l 103 1879 l 103 1622 z "},"6":{"ha":311,"x_min":0,"x_max":269,"o":"m 269 858 l 269 786 l 269 674 q 261 546 269 597 q 236 461 253 494 q 135 397 201 397 q 72 415 99 397 q 28 465 46 433 q 13 501 18 481 q 6 542 8 522 q 0 588 1 564 l 0 681 l 0 1043 l 0 1299 l 0 1310 l 0 1321 q 8 1447 0 1396 q 33 1529 17 1497 q 135 1592 67 1592 q 242 1526 204 1592 q 256 1490 250 1511 q 264 1450 261 1469 q 269 1406 268 1428 l 269 1303 l 167 1290 l 167 1399 q 165 1417 167 1401 q 161 1449 164 1432 q 152 1479 158 1465 q 135 1493 146 1493 q 124 1488 129 1493 q 114 1465 118 1482 q 106 1419 110 1449 q 103 1339 103 1389 l 103 1299 l 103 1129 q 176 1117 143 1133 q 269 869 268 1067 l 269 863 l 269 858 m 167 863 q 150 994 167 949 q 128 1028 139 1021 q 115 1030 121 1031 q 103 1026 108 1029 l 103 704 l 103 594 q 104 576 103 592 q 108 544 106 561 q 117 513 111 526 q 135 499 124 499 q 146 505 140 499 q 156 530 151 511 q 164 583 161 549 q 167 674 167 617 l 167 749 l 167 863 m 167 368 l 269 368 l 269 261 q 261 133 269 185 q 236 49 253 82 q 135 -15 201 -15 q 72 2 99 -15 q 28 51 46 19 q 13 88 18 67 q 6 128 8 108 q 0 174 1 150 l 0 267 l 0 368 l 103 368 l 103 292 l 103 182 q 104 164 103 179 q 108 131 106 149 q 117 99 111 113 q 135 85 124 85 q 146 91 140 85 q 156 117 151 97 q 164 170 161 136 q 167 261 167 204 l 167 335 l 167 368 m 103 1622 l 0 1622 l 0 1703 l 0 1714 l 0 1725 q 8 1851 0 1800 q 33 1933 17 1901 q 135 1996 68 1996 q 197 1978 171 1996 q 242 1929 224 1961 q 256 1894 250 1914 q 264 1854 261 1874 q 269 1810 268 1832 l 269 1707 l 167 1694 l 167 1803 q 165 1819 167 1804 q 161 1852 164 1835 q 152 1883 158 1869 q 135 1897 146 1897 q 124 1892 129 1897 q 114 1869 118 1886 q 106 1822 110 1853 q 103 1742 103 1792 l 103 1703 l 103 1622 z "},"7":{"ha":317,"x_min":0,"x_max":275,"o":"m 172 1579 l 172 1579 l 275 1579 l 103 414 l 0 414 l 157 1476 l 10 1476 l 10 1579 l 172 1579 m 0 1 l 54 368 l 157 368 l 103 1 l 0 1 m 118 1622 l 157 1881 l 10 1881 l 10 1983 l 172 1983 l 172 1983 l 275 1983 l 222 1622 l 118 1622 z "},"8":{"ha":311,"x_min":0,"x_max":269,"o":"m 215 994 q 258 885 249 961 q 269 707 268 808 l 269 674 q 262 546 269 597 q 236 461 254 494 q 135 397 201 397 q 72 415 99 397 q 28 465 46 433 q 13 501 18 481 q 6 542 8 522 q 0 588 1 564 l 0 675 l 0 690 l 0 692 q 10 880 1 800 q 54 994 19 960 l 56 994 q 13 1104 22 1028 q 0 1283 3 1181 l 0 1317 q 8 1444 0 1392 q 33 1528 17 1496 q 135 1592 68 1592 q 197 1574 171 1592 q 242 1525 224 1557 q 256 1489 250 1510 q 264 1449 261 1468 q 269 1403 268 1426 l 269 1314 l 269 1300 l 269 1297 q 259 1110 268 1190 q 215 994 250 1031 m 167 690 l 167 864 q 161 933 167 907 q 152 956 158 944 q 135 968 146 968 q 119 960 125 968 q 111 943 114 953 q 106 918 107 932 q 103 893 104 907 q 103 864 103 879 l 103 696 l 103 674 l 103 667 l 103 594 q 104 576 103 592 q 108 544 106 561 q 117 513 111 526 q 135 499 124 499 q 146 504 140 499 q 156 526 151 510 q 163 573 160 543 q 167 653 167 603 l 167 690 m 167 1294 l 167 1317 l 167 1324 l 167 1396 q 165 1413 167 1397 q 161 1446 164 1428 q 152 1478 158 1464 q 135 1492 146 1492 q 124 1486 129 1492 q 114 1464 118 1481 q 106 1417 110 1447 q 103 1338 103 1386 l 103 1300 l 103 1126 q 104 1099 104 1111 q 106 1075 104 1086 q 111 1050 107 1061 q 119 1033 114 1040 q 135 1025 125 1025 q 148 1031 143 1025 q 156 1045 153 1038 q 162 1060 160 1053 q 164 1072 164 1068 q 166 1098 165 1085 q 167 1126 167 1111 l 167 1294 m 269 261 q 262 133 269 185 q 236 49 254 82 q 135 -15 201 -15 q 72 2 99 -15 q 28 51 46 19 q 13 88 18 67 q 6 128 8 108 q 0 174 1 150 l 0 263 l 0 276 l 0 278 l 0 279 q 1 325 0 303 q 1 368 1 347 l 103 368 l 103 282 l 103 261 l 103 254 l 103 182 q 104 164 103 179 q 108 131 106 149 q 117 99 111 113 q 135 85 124 85 q 146 90 140 85 q 156 113 151 96 q 163 160 160 129 q 167 240 167 190 l 167 276 l 167 368 l 268 368 q 269 331 268 350 q 269 293 269 313 l 269 261 m 0 1719 q 8 1848 0 1796 q 33 1932 17 1900 q 135 1996 68 1996 q 197 1978 171 1996 q 242 1929 224 1961 q 256 1893 250 1914 q 264 1853 261 1872 q 269 1807 268 1831 l 269 1718 l 269 1704 l 269 1703 l 269 1701 q 269 1661 269 1681 q 268 1622 269 1642 l 167 1622 l 167 1699 l 167 1719 l 167 1726 l 167 1799 q 165 1817 167 1801 q 161 1850 164 1832 q 152 1882 158 1868 q 135 1896 146 1896 q 124 1890 129 1896 q 114 1868 118 1885 q 106 1821 110 1851 q 103 1740 103 1790 l 103 1704 l 103 1622 l 3 1622 q 1 1654 1 1638 q 0 1688 1 1671 l 0 1719 z "},"9":{"ha":311,"x_min":0,"x_max":269,"o":"m 265 1424 q 267 1413 267 1418 q 269 1403 268 1407 l 269 1399 l 269 936 l 269 678 q 261 550 269 601 q 236 465 253 499 q 135 403 203 403 q 72 420 99 403 q 28 469 46 438 q 13 506 18 485 q 6 546 8 526 q 0 590 1 568 l 0 694 l 103 708 l 103 599 q 104 581 103 596 q 108 548 106 565 q 117 517 111 531 q 135 503 124 503 q 146 509 140 503 q 156 534 151 515 q 164 587 161 553 q 167 678 167 621 l 167 849 l 150 849 q 93 863 119 849 q 0 1111 1 910 l 0 1118 l 0 1122 l 0 1313 q 8 1439 0 1388 q 33 1524 17 1490 q 135 1588 68 1588 q 242 1519 210 1588 q 258 1472 253 1497 q 265 1424 263 1447 m 167 1392 q 165 1401 165 1396 q 164 1410 165 1406 q 158 1447 161 1429 q 149 1478 156 1465 q 144 1485 146 1485 q 135 1486 142 1486 l 132 1486 q 126 1480 131 1486 q 116 1455 121 1474 q 107 1402 111 1436 q 103 1313 103 1368 l 103 1118 q 119 985 103 1032 q 142 951 131 958 q 155 949 149 949 q 167 953 161 950 l 167 1392 m 167 368 l 269 368 l 269 264 q 236 53 269 117 q 135 -11 201 -11 q 72 6 99 -11 q 28 56 46 24 q 13 92 18 71 q 6 132 8 113 q 0 178 1 154 l 0 282 l 103 294 l 103 185 q 104 167 103 182 q 108 135 106 153 q 117 103 111 117 q 135 89 124 89 q 146 95 140 89 q 156 120 151 101 q 164 174 161 139 q 167 264 167 208 l 167 368 m 269 1803 l 269 1622 l 167 1622 l 167 1794 q 165 1804 165 1800 q 164 1814 165 1808 q 158 1851 161 1833 q 149 1881 156 1869 q 144 1889 146 1888 q 135 1890 142 1890 l 132 1890 q 126 1884 131 1890 q 116 1859 121 1878 q 107 1806 111 1840 q 103 1715 103 1771 l 103 1622 l 0 1622 l 0 1715 q 8 1843 0 1792 q 33 1928 17 1894 q 135 1990 68 1990 q 242 1924 210 1990 q 258 1876 253 1901 q 265 1826 263 1850 l 269 1806 l 269 1803 z "},"\u0000":{"ha":0,"x_min":0,"x_max":0,"o":""},"\r":{"ha":694,"x_min":0,"x_max":0,"o":""}," ":{"ha":139,"x_min":0,"x_max":0,"o":""},"C":{"ha":311,"x_min":0,"x_max":269,"o":"m 135 1592 q 197 1574 171 1592 q 242 1525 224 1557 q 256 1489 250 1510 q 264 1449 261 1468 q 269 1404 268 1426 l 269 1300 l 167 1288 l 167 1397 q 165 1414 167 1399 q 161 1447 164 1429 q 152 1478 158 1464 q 135 1492 146 1492 q 124 1485 129 1492 q 113 1460 118 1479 q 106 1408 108 1442 q 103 1318 103 1374 l 103 1313 l 103 1307 l 103 1081 l 103 682 l 103 671 q 106 581 103 615 q 113 528 108 547 q 124 503 118 510 q 135 497 129 497 q 152 511 146 497 q 161 542 158 525 q 165 574 164 560 q 167 592 167 589 l 167 701 l 269 689 l 269 585 q 264 540 268 563 q 256 500 261 521 q 242 464 250 479 q 197 415 224 432 q 135 397 171 397 q 33 461 68 397 q 8 544 17 493 q 0 669 0 594 l 0 671 l 0 682 l 0 1053 l 0 1307 l 0 1313 l 0 1318 q 8 1444 0 1393 q 33 1529 17 1496 q 135 1592 68 1592 m 242 1929 q 256 1893 250 1914 q 264 1853 261 1872 q 269 1808 268 1831 l 269 1704 l 167 1692 l 167 1801 q 165 1818 167 1803 q 161 1851 164 1833 q 152 1882 158 1868 q 135 1896 146 1896 q 124 1890 129 1896 q 113 1865 118 1883 q 106 1812 108 1846 q 103 1722 103 1778 l 103 1721 l 103 1717 l 103 1711 l 103 1622 l 0 1622 l 0 1711 l 0 1717 l 0 1722 q 8 1849 0 1797 q 33 1932 17 1900 q 135 1996 68 1996 q 197 1978 171 1996 q 242 1929 224 1961 m 167 289 l 269 276 l 269 172 q 264 128 268 150 q 256 88 261 108 q 242 51 250 67 q 197 2 224 19 q 135 -15 171 -15 q 33 47 68 -15 q 0 256 0 111 l 0 258 l 0 269 l 0 369 l 103 369 l 103 269 l 103 258 q 106 169 103 203 q 113 116 108 135 q 124 91 118 97 q 135 85 129 85 q 152 99 146 85 q 161 130 158 113 q 165 162 164 147 q 167 179 167 176 l 167 289 z "},"D":{"ha":376,"x_min":0,"x_max":335,"o":"m 335 992 l 335 956 l 333 956 q 324 808 332 879 q 304 676 317 738 q 183 435 264 493 q 140 410 161 418 q 99 397 118 401 l 0 397 l 0 1025 l 0 1592 l 50 1592 q 65 1591 53 1592 q 97 1586 78 1590 q 138 1574 115 1582 q 183 1550 161 1565 q 304 1307 265 1489 q 324 1175 317 1246 q 333 1028 332 1104 l 335 1028 l 335 992 m 203 699 q 224 836 217 761 q 232 992 231 911 q 224 1147 231 1072 q 203 1285 217 1222 q 181 1366 192 1333 q 158 1419 169 1399 q 138 1449 147 1439 q 124 1464 129 1460 q 113 1469 118 1467 q 103 1475 108 1472 l 103 958 l 103 508 q 113 514 108 511 q 124 519 118 517 q 138 534 129 524 q 158 565 147 544 q 181 617 169 585 q 203 699 192 650 m 103 1622 l 0 1622 l 0 1994 l 50 1994 q 65 1994 53 1994 q 97 1990 78 1994 q 138 1978 115 1986 q 183 1953 161 1969 q 304 1711 264 1894 q 313 1668 308 1690 q 319 1622 317 1646 l 215 1622 q 210 1657 213 1640 q 203 1689 207 1674 q 181 1770 192 1738 q 158 1823 169 1803 q 138 1853 147 1843 q 124 1868 129 1864 q 113 1874 118 1871 q 103 1879 108 1876 l 103 1622 m 203 286 q 211 326 207 306 q 218 369 215 347 l 321 369 q 304 264 315 315 q 183 21 265 82 q 140 -3 161 6 q 99 -15 118 -11 l 0 -15 l 0 369 l 103 369 l 103 96 q 113 101 108 99 q 124 107 118 104 q 138 122 129 111 q 158 152 147 132 q 181 205 169 172 q 203 286 192 238 z "},"E":{"ha":265,"x_min":0,"x_max":224,"o":"m 0 413 l 0 1579 l 224 1579 l 224 1476 l 103 1476 l 103 1051 l 185 1051 l 185 947 l 103 947 l 103 511 l 224 511 l 224 413 l 0 413 m 0 1983 l 224 1983 l 224 1881 l 103 1881 l 103 1622 l 0 1622 l 0 1983 m 103 369 l 103 99 l 224 99 l 224 0 l 0 0 l 0 369 l 103 369 z "},"F":{"ha":265,"x_min":0,"x_max":224,"o":"m 0 413 l 0 1579 l 224 1579 l 224 1476 l 103 1476 l 103 1051 l 185 1051 l 185 947 l 103 947 l 103 413 l 0 413 m 0 1983 l 224 1983 l 224 1881 l 103 1881 l 103 1622 l 0 1622 l 0 1983 m 0 0 l 0 369 l 103 369 l 103 0 l 0 0 z "},"G":{"ha":311,"x_min":0,"x_max":269,"o":"m 135 1592 q 197 1574 171 1592 q 242 1525 224 1557 q 256 1489 250 1510 q 264 1449 261 1468 q 269 1404 268 1426 l 269 1300 l 167 1288 l 167 1396 q 165 1414 167 1399 q 161 1447 164 1429 q 152 1478 158 1464 q 135 1492 146 1492 q 124 1485 129 1492 q 113 1460 118 1479 q 106 1408 108 1442 q 103 1318 103 1374 l 103 1317 l 103 1313 l 103 1307 l 103 1081 l 103 682 l 103 671 q 106 581 103 615 q 113 528 108 547 q 124 503 118 510 q 135 497 129 497 q 152 511 146 497 q 161 542 158 525 q 165 574 164 560 q 167 592 167 589 l 167 946 l 129 946 l 129 1047 l 269 1047 l 269 976 l 269 946 l 269 585 q 264 540 268 563 q 256 500 261 521 q 242 464 250 479 q 197 415 224 432 q 135 397 171 397 q 33 461 68 397 q 8 544 17 493 q 0 669 0 594 l 0 671 l 0 682 l 0 1051 l 0 1307 l 0 1313 l 0 1318 q 8 1444 0 1393 q 33 1528 17 1496 q 135 1592 68 1592 m 242 1929 q 256 1893 250 1914 q 264 1853 261 1872 q 269 1808 268 1831 l 269 1704 l 167 1692 l 167 1800 q 165 1818 167 1803 q 161 1851 164 1833 q 152 1882 158 1868 q 135 1896 146 1896 q 124 1890 129 1896 q 113 1865 118 1883 q 106 1812 108 1846 q 103 1722 103 1778 l 103 1721 l 103 1717 l 103 1711 l 103 1622 l 0 1622 l 0 1711 l 0 1717 l 0 1722 q 8 1849 0 1797 q 33 1932 17 1900 q 135 1994 67 1994 q 197 1977 171 1994 q 242 1929 224 1960 m 167 369 l 269 369 l 269 172 q 264 128 268 150 q 256 88 261 108 q 242 51 250 67 q 197 2 224 19 q 135 -15 171 -15 q 33 47 68 -15 q 0 256 0 111 l 0 258 l 0 268 l 0 369 l 103 369 l 103 268 l 103 258 q 106 169 103 203 q 113 116 108 135 q 124 91 118 97 q 135 85 129 85 q 152 99 146 85 q 161 130 158 113 q 165 162 164 147 q 167 179 167 176 l 167 369 z "},"H":{"ha":318,"x_min":0,"x_max":276,"o":"m 174 1051 l 174 1579 l 276 1579 l 276 414 l 174 414 l 174 949 l 103 949 l 103 414 l 0 414 l 0 1579 l 103 1579 l 103 1051 l 174 1051 m 174 1983 l 276 1983 l 276 1622 l 174 1622 l 174 1983 m 103 1983 l 103 1622 l 0 1622 l 0 1983 l 103 1983 m 0 1 l 0 369 l 103 369 l 103 1 l 0 1 m 174 1 l 174 369 l 276 369 l 276 1 l 174 1 z "},"I":{"ha":144,"x_min":0,"x_max":103,"o":"m 0 414 l 0 1579 l 103 1579 l 103 414 l 0 414 m 0 1983 l 103 1983 l 103 1622 l 0 1622 l 0 1983 m 0 1 l 0 369 l 103 369 l 103 1 l 0 1 z "},"J":{"ha":311,"x_min":0,"x_max":269,"o":"m 269 1582 l 269 1061 l 269 676 l 269 675 q 261 547 269 599 q 236 461 253 494 q 135 397 201 397 q 72 415 99 397 q 28 465 46 433 q 13 501 18 481 q 6 542 8 522 q 0 588 1 564 l 0 693 l 103 707 l 103 596 q 104 578 103 593 q 108 544 106 563 q 117 513 111 526 q 135 499 124 499 q 146 505 140 499 q 156 531 151 511 q 164 584 161 550 q 167 675 167 618 l 167 686 l 167 1090 l 167 1582 l 269 1582 m 269 1622 l 167 1622 l 167 1986 l 269 1986 l 269 1622 m 167 369 l 269 369 l 269 264 l 269 263 q 261 134 269 186 q 236 49 253 82 q 135 -15 201 -15 q 72 3 99 -15 q 28 53 46 21 q 13 89 18 68 q 6 129 8 110 q 0 175 1 151 l 0 281 l 103 293 l 103 183 q 104 165 103 181 q 108 132 106 150 q 117 100 111 114 q 135 86 124 86 q 146 92 140 86 q 156 117 151 99 q 164 171 161 136 q 167 263 167 206 l 167 274 l 167 369 z "},"K":{"ha":353,"x_min":0,"x_max":311,"o":"m 204 1579 l 311 1579 l 174 1104 l 310 414 l 206 414 l 111 889 l 103 858 l 103 414 l 0 414 l 0 1579 l 103 1579 l 103 1229 l 204 1579 m 311 1983 l 207 1622 l 0 1622 l 0 1983 l 103 1983 l 103 1633 l 204 1983 l 311 1983 m 0 1 l 0 369 l 103 369 l 103 1 l 0 1 m 132 369 l 238 369 l 310 1 l 206 1 l 132 369 z "},"L":{"ha":265,"x_min":0,"x_max":224,"o":"m 103 513 l 224 513 l 224 414 l 0 414 l 0 1579 l 103 1579 l 103 513 m 103 1983 l 103 1622 l 0 1622 l 0 1983 l 103 1983 m 103 369 l 103 100 l 224 100 l 224 1 l 0 1 l 0 369 l 103 369 z "},"M":{"ha":493,"x_min":0,"x_max":451,"o":"m 226 957 l 285 1579 l 451 1579 l 450 413 l 346 413 l 347 1325 l 278 414 l 175 414 l 104 1324 l 104 414 l 1 414 l 0 1579 l 167 1579 l 226 957 m 347 1729 l 339 1622 l 250 1622 l 285 1983 l 451 1983 l 451 1622 l 347 1622 l 347 1729 m 104 1622 l 0 1622 l 0 1983 l 167 1983 l 201 1622 l 111 1622 l 104 1728 l 104 1622 m 1 369 l 104 369 l 104 1 l 1 1 l 1 369 m 175 1 l 146 369 l 306 369 l 278 1 l 175 1 m 346 0 l 347 369 l 450 369 l 450 0 l 346 0 z "},"N":{"ha":371,"x_min":0,"x_max":329,"o":"m 226 951 l 226 1579 l 329 1579 l 329 414 l 278 414 l 226 414 l 197 414 l 104 1322 l 104 414 l 1 414 l 0 1579 l 167 1579 l 226 951 m 104 1622 l 0 1622 l 0 1983 l 167 1983 l 201 1622 l 114 1622 l 104 1726 l 104 1622 m 226 1983 l 329 1983 l 329 1622 l 226 1622 l 226 1983 m 1 369 l 104 369 l 104 1 l 1 1 l 1 369 m 197 1 l 160 369 l 329 369 l 329 1 l 278 1 l 226 1 l 197 1 z "},"O":{"ha":311,"x_min":0,"x_max":269,"o":"m 135 1592 q 197 1574 171 1592 q 242 1525 224 1557 q 256 1489 250 1510 q 264 1449 261 1468 q 269 1404 268 1426 l 269 1300 l 269 1081 l 269 689 l 269 585 q 264 540 268 563 q 256 500 261 521 q 242 464 250 479 q 197 415 224 432 q 135 397 171 397 q 33 461 68 397 q 8 544 17 493 q 0 669 0 594 l 0 671 l 0 682 l 0 1051 l 0 1307 l 0 1313 l 0 1318 q 8 1444 0 1393 q 33 1528 17 1496 q 135 1592 68 1592 m 167 1396 q 165 1414 167 1399 q 161 1447 164 1429 q 152 1478 158 1464 q 135 1492 146 1492 q 124 1485 129 1492 q 113 1460 118 1479 q 106 1408 108 1442 q 103 1318 103 1374 l 103 1317 l 103 1313 l 103 1307 l 103 1081 l 103 682 l 103 671 q 106 581 103 615 q 113 528 108 547 q 124 503 118 510 q 135 497 129 497 q 152 511 146 497 q 161 542 158 525 q 165 574 164 560 q 167 592 167 589 l 167 669 l 167 1051 l 167 1313 l 167 1317 l 167 1396 m 242 1929 q 256 1893 250 1914 q 264 1853 261 1872 q 269 1808 268 1831 l 269 1704 l 269 1622 l 167 1622 l 167 1717 l 167 1719 l 167 1800 q 165 1818 167 1803 q 161 1851 164 1833 q 152 1882 158 1868 q 135 1896 146 1896 q 124 1890 129 1896 q 113 1865 118 1883 q 106 1812 108 1846 q 103 1722 103 1778 l 103 1721 l 103 1717 l 103 1711 l 103 1622 l 0 1622 l 0 1711 l 0 1717 l 0 1722 q 8 1849 0 1797 q 33 1932 17 1900 q 135 1994 67 1994 q 197 1977 171 1994 q 242 1929 224 1960 m 269 276 l 269 172 q 264 128 268 150 q 256 88 261 108 q 242 51 250 67 q 197 2 224 19 q 135 -15 171 -15 q 33 47 68 -15 q 0 256 0 111 l 0 258 l 0 268 l 0 369 l 103 369 l 103 268 l 103 258 q 106 169 103 203 q 113 116 108 135 q 124 91 118 97 q 135 85 129 85 q 152 99 146 85 q 161 130 158 113 q 165 162 164 147 q 167 179 167 176 l 167 256 l 167 369 l 269 369 l 269 276 z "},"P":{"ha":378,"x_min":0,"x_max":336,"o":"m 169 1574 q 300 1446 256 1544 q 327 1360 318 1407 q 335 1264 336 1314 q 333 1233 335 1258 q 322 1173 331 1208 q 296 1098 314 1138 q 244 1025 278 1058 q 103 954 186 967 l 103 414 l 0 414 l 0 1267 l 0 1539 l 0 1590 l 50 1592 q 92 1590 56 1592 q 169 1574 129 1588 m 232 1271 q 226 1345 233 1310 q 207 1410 219 1381 q 138 1482 182 1467 q 120 1486 129 1485 q 103 1490 111 1488 l 103 1271 l 103 1064 q 171 1101 142 1072 q 206 1153 193 1124 q 224 1208 218 1182 q 231 1251 229 1233 q 232 1269 232 1268 l 232 1271 m 103 1622 l 0 1622 l 0 1669 l 0 1943 l 0 1994 l 50 1994 q 92 1994 56 1996 q 169 1978 129 1992 q 300 1850 256 1949 q 327 1765 318 1811 q 335 1668 336 1718 q 334 1653 335 1665 q 331 1622 333 1640 l 226 1622 q 231 1658 229 1643 q 232 1674 232 1672 l 232 1675 q 226 1749 233 1714 q 207 1814 219 1785 q 138 1886 182 1869 q 120 1890 129 1889 q 103 1894 111 1892 l 103 1675 l 103 1622 m 0 369 l 103 369 l 103 1 l 0 1 l 0 369 z "},"Q":{"ha":329,"x_min":0,"x_max":288,"o":"m 103 1622 l 0 1622 l 0 1711 l 0 1717 l 0 1722 q 8 1849 0 1797 q 33 1932 17 1900 q 135 1994 67 1994 q 197 1977 171 1994 q 242 1929 224 1960 q 256 1893 250 1914 q 264 1853 261 1872 q 269 1808 268 1831 l 269 1704 l 269 1622 l 167 1622 l 167 1717 l 167 1719 l 167 1800 q 165 1818 167 1803 q 161 1851 164 1833 q 152 1882 158 1868 q 135 1896 146 1896 q 124 1890 129 1896 q 113 1865 118 1883 q 106 1812 108 1846 q 103 1722 103 1778 l 103 1721 l 103 1717 l 103 1711 l 103 1622 m 33 460 q 0 668 0 524 l 0 671 l 0 682 l 0 1051 l 0 1307 l 0 1313 l 0 1318 q 8 1444 0 1393 q 33 1528 17 1496 q 135 1590 67 1590 q 197 1573 171 1590 q 242 1525 224 1556 q 256 1489 250 1510 q 264 1449 261 1468 q 269 1404 268 1426 l 269 1300 l 269 1079 l 269 689 l 269 585 q 264 540 268 563 q 256 500 261 521 q 242 464 250 479 q 239 458 240 461 q 236 453 238 456 l 288 357 l 199 307 l 149 397 l 135 397 q 33 460 68 397 m 103 671 q 106 581 103 615 q 113 528 108 547 q 124 503 118 510 q 135 497 129 497 q 152 511 146 497 q 161 542 158 525 q 165 574 164 560 q 167 592 167 589 l 167 668 l 167 1051 l 167 1313 l 167 1315 l 167 1396 q 165 1414 167 1399 q 161 1447 164 1429 q 152 1478 158 1464 q 135 1492 146 1492 q 124 1485 129 1492 q 113 1460 118 1479 q 106 1408 108 1442 q 103 1318 103 1374 l 103 1317 l 103 1313 l 103 1307 l 103 1079 l 103 682 l 103 671 m 242 51 q 239 46 240 49 q 236 40 238 43 l 288 -56 l 199 -106 l 149 -15 l 135 -15 q 33 47 67 -15 q 0 256 0 111 l 0 258 l 0 268 l 0 369 l 103 369 l 103 268 l 103 258 q 106 168 103 203 q 113 115 108 133 q 124 90 118 96 q 135 83 129 83 q 152 97 146 83 q 161 128 158 111 q 165 161 164 146 q 167 179 167 176 l 167 256 l 167 278 l 269 278 l 269 275 l 269 172 q 264 126 268 149 q 256 87 261 107 q 242 51 250 67 z "},"R":{"ha":389,"x_min":0,"x_max":347,"o":"m 240 417 l 103 892 l 103 414 l 0 414 l 0 1265 l 0 1588 l 0 1590 l 50 1592 q 92 1590 56 1592 q 169 1574 129 1588 q 300 1446 256 1544 q 327 1360 318 1407 q 335 1264 336 1313 q 333 1233 335 1258 q 322 1172 331 1207 q 296 1097 314 1136 q 244 1024 278 1057 q 185 979 215 994 l 347 417 l 240 417 m 103 1058 q 171 1097 144 1068 q 206 1148 193 1119 q 224 1202 218 1176 q 231 1246 229 1228 q 232 1264 232 1264 l 232 1265 q 226 1340 233 1304 q 207 1403 219 1375 q 138 1475 182 1460 q 103 1483 121 1481 l 103 1265 l 103 1058 m 103 1622 l 0 1622 l 0 1669 l 0 1990 l 0 1994 l 50 1994 q 92 1994 56 1996 q 169 1978 129 1992 q 300 1850 256 1949 q 327 1764 318 1811 q 335 1668 336 1717 q 334 1652 335 1664 q 331 1622 333 1640 l 226 1622 q 231 1654 231 1642 q 232 1668 232 1667 l 232 1669 q 226 1743 233 1707 q 207 1807 219 1779 q 138 1879 182 1864 q 103 1888 121 1885 l 103 1669 l 103 1622 m 242 369 l 347 4 l 240 4 l 135 369 l 242 369 m 0 369 l 103 369 l 103 1 l 0 1 l 0 369 z "},"S":{"ha":319,"x_min":0,"x_max":278,"o":"m 143 1592 q 206 1574 179 1592 q 250 1525 232 1557 q 264 1489 258 1510 q 272 1449 269 1468 q 278 1404 276 1426 l 278 1300 l 175 1288 l 175 1396 q 174 1414 175 1399 q 169 1447 172 1429 q 160 1478 167 1464 q 143 1492 154 1492 q 131 1485 136 1492 q 121 1460 125 1479 q 114 1408 117 1442 q 111 1318 111 1374 l 111 1314 l 111 1311 l 111 1310 l 111 1307 q 112 1262 111 1293 q 119 1207 113 1231 q 149 1138 128 1183 q 190 1046 169 1092 q 228 963 210 1001 q 254 900 246 924 q 270 801 268 861 q 269 686 272 740 l 269 685 l 269 676 l 269 671 q 261 544 269 596 q 236 461 253 493 q 135 397 201 397 q 72 415 99 397 q 28 464 46 432 q 13 500 18 479 q 6 540 8 521 q 0 585 1 563 l 0 689 l 103 701 l 103 592 q 104 574 103 589 q 108 542 106 560 q 117 511 111 525 q 135 497 124 497 q 146 503 140 497 q 156 528 151 510 q 164 581 161 547 q 167 671 167 615 l 167 682 l 167 688 q 157 867 171 826 q 133 926 150 888 q 96 1004 115 964 q 51 1101 72 1056 q 22 1176 31 1147 q 10 1242 13 1207 q 8 1308 8 1278 l 8 1310 l 8 1318 q 16 1444 8 1393 q 42 1528 24 1496 q 143 1592 76 1592 m 250 1929 q 264 1893 258 1914 q 272 1853 269 1872 q 278 1808 276 1831 l 278 1704 l 175 1692 l 175 1800 q 174 1818 175 1803 q 169 1851 172 1833 q 160 1882 167 1868 q 143 1896 154 1896 q 131 1890 136 1896 q 121 1865 125 1883 q 114 1812 117 1846 q 111 1722 111 1778 l 111 1718 l 111 1714 l 111 1711 q 112 1672 111 1699 q 117 1622 113 1646 l 13 1622 q 9 1669 10 1646 q 8 1713 8 1692 l 8 1714 l 8 1722 q 16 1849 8 1797 q 42 1932 24 1900 q 143 1994 75 1994 q 206 1977 179 1994 q 250 1929 232 1960 m 271 369 q 271 321 271 346 q 269 272 271 296 l 269 264 l 269 258 q 261 132 269 183 q 236 47 253 81 q 135 -15 201 -15 q 72 2 99 -15 q 28 51 46 19 q 13 88 18 67 q 6 128 8 108 q 0 172 1 150 l 0 276 l 103 289 l 103 179 q 104 162 103 176 q 108 130 106 147 q 117 99 111 113 q 135 85 124 85 q 146 91 140 85 q 156 116 151 97 q 164 169 161 135 q 167 258 167 203 l 167 269 l 167 275 q 167 369 169 329 l 271 369 z "},"T":{"ha":325,"x_min":0,"x_max":283,"o":"m 0 1476 l 0 1579 l 283 1579 l 283 1476 l 193 1476 l 193 414 l 90 414 l 90 1476 l 0 1476 m 0 1983 l 283 1983 l 283 1881 l 193 1881 l 193 1622 l 90 1622 l 90 1881 l 0 1881 l 0 1983 m 90 0 l 90 369 l 193 369 l 193 0 l 90 0 z "},"U":{"ha":311,"x_min":0,"x_max":269,"o":"m 167 1579 l 269 1579 l 269 675 q 261 547 269 599 q 236 461 253 494 q 135 397 201 397 q 28 465 60 397 q 12 514 17 489 q 4 563 7 539 q 2 574 3 569 q 0 585 1 579 l 0 588 l 0 1579 l 103 1579 l 103 596 q 104 586 104 590 q 106 576 104 582 q 111 539 108 557 q 121 508 114 521 q 135 499 125 499 l 138 499 q 143 506 139 499 q 153 531 147 513 q 163 584 158 550 q 167 675 167 618 l 167 1579 m 269 1983 l 269 1622 l 167 1622 l 167 1983 l 269 1983 m 103 1622 l 0 1622 l 0 1983 l 103 1983 l 103 1622 m 167 369 l 269 369 l 269 263 q 261 134 269 186 q 236 49 253 82 q 135 -15 201 -15 q 28 53 60 -15 q 12 101 17 75 q 4 150 7 126 q 2 161 3 156 q 0 171 1 167 l 0 175 l 0 369 l 103 369 l 103 183 q 104 173 104 178 q 106 164 104 168 q 111 126 108 144 q 121 96 114 107 q 135 86 125 86 l 138 86 q 143 92 139 86 q 153 117 147 99 q 163 171 158 136 q 167 263 167 206 l 167 369 z "},"X":{"ha":382,"x_min":0,"x_max":340,"o":"m 218 1579 l 340 1579 l 232 994 l 340 414 l 217 414 l 171 785 l 124 414 l 1 414 l 108 994 l 0 1579 l 122 1579 l 171 1194 l 218 1579 m 168 1622 l 67 1622 l 0 1983 l 122 1983 l 168 1622 m 340 1983 l 274 1622 l 174 1622 l 218 1983 l 340 1983 m 171 369 l 271 369 l 340 0 l 217 0 l 171 369 m 1 0 l 69 369 l 169 369 l 124 0 l 1 0 z "},"Y":{"ha":329,"x_min":0,"x_max":288,"o":"m 143 1203 l 183 1579 l 288 1579 l 193 992 l 193 414 l 90 414 l 90 1010 l 0 1579 l 104 1579 l 143 1203 m 288 1983 l 229 1622 l 146 1622 l 183 1983 l 288 1983 m 142 1622 l 57 1622 l 0 1983 l 104 1983 l 142 1622 m 90 0 l 90 369 l 193 369 l 193 0 l 90 0 z "},"Z":{"ha":361,"x_min":0,"x_max":319,"o":"m 86 1579 l 319 1579 l 122 511 l 258 511 l 258 414 l 0 414 l 197 1479 l 86 1479 l 86 1579 m 149 1622 l 197 1883 l 86 1883 l 86 1983 l 319 1983 l 253 1622 l 149 1622 m 172 369 l 122 99 l 258 99 l 258 0 l 0 0 l 68 369 l 172 369 z "},"z":{"ha":361,"x_min":0,"x_max":319,"o":"m 86 1579 l 319 1579 l 122 511 l 258 511 l 258 414 l 0 414 l 197 1479 l 86 1479 l 86 1579 m 149 1622 l 197 1883 l 86 1883 l 86 1983 l 319 1983 l 253 1622 l 149 1622 m 172 369 l 122 99 l 258 99 l 258 0 l 0 0 l 68 369 l 172 369 z "},"y":{"ha":329,"x_min":0,"x_max":288,"o":"m 143 1203 l 183 1579 l 288 1579 l 193 992 l 193 414 l 90 414 l 90 1010 l 0 1579 l 104 1579 l 143 1203 m 288 1983 l 229 1622 l 146 1622 l 183 1983 l 288 1983 m 142 1622 l 57 1622 l 0 1983 l 104 1983 l 142 1622 m 90 0 l 90 369 l 193 369 l 193 0 l 90 0 z "},"x":{"ha":382,"x_min":0,"x_max":340,"o":"m 218 1579 l 340 1579 l 232 994 l 340 414 l 217 414 l 171 785 l 124 414 l 1 414 l 108 994 l 0 1579 l 122 1579 l 171 1194 l 218 1579 m 168 1622 l 67 1622 l 0 1983 l 122 1983 l 168 1622 m 340 1983 l 274 1622 l 174 1622 l 218 1983 l 340 1983 m 171 369 l 271 369 l 340 0 l 217 0 l 171 369 m 1 0 l 69 369 l 169 369 l 124 0 l 1 0 z "},"w":{"ha":633,"x_min":0,"x_max":592,"o":"m 418 672 l 489 1579 l 592 1579 l 501 414 l 335 414 l 296 917 l 257 414 l 90 414 l 0 1579 l 103 1579 l 174 672 l 244 1579 l 244 1579 l 347 1579 l 347 1579 l 418 672 m 592 1983 l 564 1622 l 461 1622 l 489 1983 l 592 1983 m 347 1983 l 375 1622 l 217 1622 l 244 1983 l 244 1983 l 347 1983 l 347 1983 m 131 1622 l 28 1622 l 0 1983 l 103 1983 l 131 1622 m 174 260 l 182 369 l 286 369 l 257 0 l 90 0 l 63 369 l 165 369 l 174 260 m 418 260 l 426 369 l 529 369 l 501 0 l 335 0 l 306 369 l 410 369 l 418 260 z "},"v":{"ha":389,"x_min":0,"x_max":347,"o":"m 174 672 l 244 1579 l 347 1579 l 257 414 l 90 414 l 0 1579 l 103 1579 l 174 672 m 347 1983 l 319 1622 l 217 1622 l 244 1983 l 347 1983 m 131 1622 l 28 1622 l 0 1983 l 103 1983 l 131 1622 m 174 260 l 182 369 l 286 369 l 257 0 l 90 0 l 63 369 l 165 369 l 174 260 z "},"u":{"ha":311,"x_min":0,"x_max":269,"o":"m 167 1579 l 269 1579 l 269 675 q 261 547 269 599 q 236 461 253 494 q 135 397 201 397 q 28 465 60 397 q 12 514 17 489 q 4 563 7 539 q 2 574 3 569 q 0 585 1 579 l 0 588 l 0 1579 l 103 1579 l 103 596 q 104 586 104 590 q 106 576 104 582 q 111 539 108 557 q 121 508 114 521 q 135 499 125 499 l 138 499 q 143 506 139 499 q 153 531 147 513 q 163 584 158 550 q 167 675 167 618 l 167 1579 m 269 1983 l 269 1622 l 167 1622 l 167 1983 l 269 1983 m 103 1622 l 0 1622 l 0 1983 l 103 1983 l 103 1622 m 167 369 l 269 369 l 269 263 q 261 134 269 186 q 236 49 253 82 q 135 -15 201 -15 q 28 53 60 -15 q 12 101 17 75 q 4 150 7 126 q 2 161 3 156 q 0 171 1 167 l 0 175 l 0 369 l 103 369 l 103 183 q 104 173 104 178 q 106 164 104 168 q 111 126 108 144 q 121 96 114 107 q 135 86 125 86 l 138 86 q 143 92 139 86 q 153 117 147 99 q 163 171 158 136 q 167 263 167 206 l 167 369 z "},"t":{"ha":325,"x_min":0,"x_max":283,"o":"m 0 1476 l 0 1579 l 283 1579 l 283 1476 l 193 1476 l 193 414 l 90 414 l 90 1476 l 0 1476 m 0 1983 l 283 1983 l 283 1881 l 193 1881 l 193 1622 l 90 1622 l 90 1881 l 0 1881 l 0 1983 m 90 0 l 90 369 l 193 369 l 193 0 l 90 0 z "},"s":{"ha":319,"x_min":0,"x_max":278,"o":"m 143 1592 q 206 1574 179 1592 q 250 1525 232 1557 q 264 1489 258 1510 q 272 1449 269 1468 q 278 1404 276 1426 l 278 1300 l 175 1288 l 175 1396 q 174 1414 175 1399 q 169 1447 172 1429 q 160 1478 167 1464 q 143 1492 154 1492 q 131 1485 136 1492 q 121 1460 125 1479 q 114 1408 117 1442 q 111 1318 111 1374 l 111 1314 l 111 1311 l 111 1310 l 111 1307 q 112 1262 111 1293 q 119 1207 113 1231 q 149 1138 128 1183 q 190 1046 169 1092 q 228 963 210 1001 q 254 900 246 924 q 270 801 268 861 q 269 686 272 740 l 269 685 l 269 676 l 269 671 q 261 544 269 596 q 236 461 253 493 q 135 397 201 397 q 72 415 99 397 q 28 464 46 432 q 13 500 18 479 q 6 540 8 521 q 0 585 1 563 l 0 689 l 103 701 l 103 592 q 104 574 103 589 q 108 542 106 560 q 117 511 111 525 q 135 497 124 497 q 146 503 140 497 q 156 528 151 510 q 164 581 161 547 q 167 671 167 615 l 167 682 l 167 688 q 157 867 171 826 q 133 926 150 888 q 96 1004 115 964 q 51 1101 72 1056 q 22 1176 31 1147 q 10 1242 13 1207 q 8 1308 8 1278 l 8 1310 l 8 1318 q 16 1444 8 1393 q 42 1528 24 1496 q 143 1592 76 1592 m 250 1929 q 264 1893 258 1914 q 272 1853 269 1872 q 278 1808 276 1831 l 278 1704 l 175 1692 l 175 1800 q 174 1818 175 1803 q 169 1851 172 1833 q 160 1882 167 1868 q 143 1896 154 1896 q 131 1890 136 1896 q 121 1865 125 1883 q 114 1812 117 1846 q 111 1722 111 1778 l 111 1718 l 111 1714 l 111 1711 q 112 1672 111 1699 q 117 1622 113 1646 l 13 1622 q 9 1669 10 1646 q 8 1713 8 1692 l 8 1714 l 8 1722 q 16 1849 8 1797 q 42 1932 24 1900 q 143 1994 75 1994 q 206 1977 179 1994 q 250 1929 232 1960 m 271 369 q 271 321 271 346 q 269 272 271 296 l 269 264 l 269 258 q 261 132 269 183 q 236 47 253 81 q 135 -15 201 -15 q 72 2 99 -15 q 28 51 46 19 q 13 88 18 67 q 6 128 8 108 q 0 172 1 150 l 0 276 l 103 289 l 103 179 q 104 162 103 176 q 108 130 106 147 q 117 99 111 113 q 135 85 124 85 q 146 91 140 85 q 156 116 151 97 q 164 169 161 135 q 167 258 167 203 l 167 269 l 167 275 q 167 369 169 329 l 271 369 z "},"r":{"ha":389,"x_min":0,"x_max":347,"o":"m 240 417 l 103 892 l 103 414 l 0 414 l 0 1265 l 0 1588 l 0 1590 l 50 1592 q 92 1590 56 1592 q 169 1574 129 1588 q 300 1446 256 1544 q 327 1360 318 1407 q 335 1264 336 1313 q 333 1233 335 1258 q 322 1172 331 1207 q 296 1097 314 1136 q 244 1024 278 1057 q 185 979 215 994 l 347 417 l 240 417 m 103 1058 q 171 1097 144 1068 q 206 1148 193 1119 q 224 1202 218 1176 q 231 1246 229 1228 q 232 1264 232 1264 l 232 1265 q 226 1340 233 1304 q 207 1403 219 1375 q 138 1475 182 1460 q 103 1483 121 1481 l 103 1265 l 103 1058 m 103 1622 l 0 1622 l 0 1669 l 0 1990 l 0 1994 l 50 1994 q 92 1994 56 1996 q 169 1978 129 1992 q 300 1850 256 1949 q 327 1764 318 1811 q 335 1668 336 1717 q 334 1652 335 1664 q 331 1622 333 1640 l 226 1622 q 231 1654 231 1642 q 232 1668 232 1667 l 232 1669 q 226 1743 233 1707 q 207 1807 219 1779 q 138 1879 182 1864 q 103 1888 121 1885 l 103 1669 l 103 1622 m 242 369 l 347 4 l 240 4 l 135 369 l 242 369 m 0 369 l 103 369 l 103 1 l 0 1 l 0 369 z "},"q":{"ha":329,"x_min":0,"x_max":288,"o":"m 103 1622 l 0 1622 l 0 1711 l 0 1717 l 0 1722 q 8 1849 0 1797 q 33 1932 17 1900 q 135 1994 67 1994 q 197 1977 171 1994 q 242 1929 224 1960 q 256 1893 250 1914 q 264 1853 261 1872 q 269 1808 268 1831 l 269 1704 l 269 1622 l 167 1622 l 167 1717 l 167 1719 l 167 1800 q 165 1818 167 1803 q 161 1851 164 1833 q 152 1882 158 1868 q 135 1896 146 1896 q 124 1890 129 1896 q 113 1865 118 1883 q 106 1812 108 1846 q 103 1722 103 1778 l 103 1721 l 103 1717 l 103 1711 l 103 1622 m 33 460 q 0 668 0 524 l 0 671 l 0 682 l 0 1051 l 0 1307 l 0 1313 l 0 1318 q 8 1444 0 1393 q 33 1528 17 1496 q 135 1590 67 1590 q 197 1573 171 1590 q 242 1525 224 1556 q 256 1489 250 1510 q 264 1449 261 1468 q 269 1404 268 1426 l 269 1300 l 269 1079 l 269 689 l 269 585 q 264 540 268 563 q 256 500 261 521 q 242 464 250 479 q 239 458 240 461 q 236 453 238 456 l 288 357 l 199 307 l 149 397 l 135 397 q 33 460 68 397 m 103 671 q 106 581 103 615 q 113 528 108 547 q 124 503 118 510 q 135 497 129 497 q 152 511 146 497 q 161 542 158 525 q 165 574 164 560 q 167 592 167 589 l 167 668 l 167 1051 l 167 1313 l 167 1315 l 167 1396 q 165 1414 167 1399 q 161 1447 164 1429 q 152 1478 158 1464 q 135 1492 146 1492 q 124 1485 129 1492 q 113 1460 118 1479 q 106 1408 108 1442 q 103 1318 103 1374 l 103 1317 l 103 1313 l 103 1307 l 103 1079 l 103 682 l 103 671 m 242 51 q 239 46 240 49 q 236 40 238 43 l 288 -56 l 199 -106 l 149 -15 l 135 -15 q 33 47 67 -15 q 0 256 0 111 l 0 258 l 0 268 l 0 369 l 103 369 l 103 268 l 103 258 q 106 168 103 203 q 113 115 108 133 q 124 90 118 96 q 135 83 129 83 q 152 97 146 83 q 161 128 158 111 q 165 161 164 146 q 167 179 167 176 l 167 256 l 167 278 l 269 278 l 269 275 l 269 172 q 264 126 268 149 q 256 87 261 107 q 242 51 250 67 z "},"p":{"ha":378,"x_min":0,"x_max":336,"o":"m 169 1574 q 300 1446 256 1544 q 327 1360 318 1407 q 335 1264 336 1314 q 333 1233 335 1258 q 322 1173 331 1208 q 296 1098 314 1138 q 244 1025 278 1058 q 103 954 186 967 l 103 414 l 0 414 l 0 1267 l 0 1539 l 0 1590 l 50 1592 q 92 1590 56 1592 q 169 1574 129 1588 m 232 1271 q 226 1345 233 1310 q 207 1410 219 1381 q 138 1482 182 1467 q 120 1486 129 1485 q 103 1490 111 1488 l 103 1271 l 103 1064 q 171 1101 142 1072 q 206 1153 193 1124 q 224 1208 218 1182 q 231 1251 229 1233 q 232 1269 232 1268 l 232 1271 m 103 1622 l 0 1622 l 0 1669 l 0 1943 l 0 1994 l 50 1994 q 92 1994 56 1996 q 169 1978 129 1992 q 300 1850 256 1949 q 327 1765 318 1811 q 335 1668 336 1718 q 334 1653 335 1665 q 331 1622 333 1640 l 226 1622 q 231 1658 229 1643 q 232 1674 232 1672 l 232 1675 q 226 1749 233 1714 q 207 1814 219 1785 q 138 1886 182 1869 q 120 1890 129 1889 q 103 1894 111 1892 l 103 1675 l 103 1622 m 0 369 l 103 369 l 103 1 l 0 1 l 0 369 z "},"o":{"ha":311,"x_min":0,"x_max":269,"o":"m 135 1592 q 197 1574 171 1592 q 242 1525 224 1557 q 256 1489 250 1510 q 264 1449 261 1468 q 269 1404 268 1426 l 269 1300 l 269 1081 l 269 689 l 269 585 q 264 540 268 563 q 256 500 261 521 q 242 464 250 479 q 197 415 224 432 q 135 397 171 397 q 33 461 68 397 q 8 544 17 493 q 0 669 0 594 l 0 671 l 0 682 l 0 1051 l 0 1307 l 0 1313 l 0 1318 q 8 1444 0 1393 q 33 1528 17 1496 q 135 1592 68 1592 m 167 1396 q 165 1414 167 1399 q 161 1447 164 1429 q 152 1478 158 1464 q 135 1492 146 1492 q 124 1485 129 1492 q 113 1460 118 1479 q 106 1408 108 1442 q 103 1318 103 1374 l 103 1317 l 103 1313 l 103 1307 l 103 1081 l 103 682 l 103 671 q 106 581 103 615 q 113 528 108 547 q 124 503 118 510 q 135 497 129 497 q 152 511 146 497 q 161 542 158 525 q 165 574 164 560 q 167 592 167 589 l 167 669 l 167 1051 l 167 1313 l 167 1317 l 167 1396 m 242 1929 q 256 1893 250 1914 q 264 1853 261 1872 q 269 1808 268 1831 l 269 1704 l 269 1622 l 167 1622 l 167 1717 l 167 1719 l 167 1800 q 165 1818 167 1803 q 161 1851 164 1833 q 152 1882 158 1868 q 135 1896 146 1896 q 124 1890 129 1896 q 113 1865 118 1883 q 106 1812 108 1846 q 103 1722 103 1778 l 103 1721 l 103 1717 l 103 1711 l 103 1622 l 0 1622 l 0 1711 l 0 1717 l 0 1722 q 8 1849 0 1797 q 33 1932 17 1900 q 135 1994 67 1994 q 197 1977 171 1994 q 242 1929 224 1960 m 269 276 l 269 172 q 264 128 268 150 q 256 88 261 108 q 242 51 250 67 q 197 2 224 19 q 135 -15 171 -15 q 33 47 68 -15 q 0 256 0 111 l 0 258 l 0 268 l 0 369 l 103 369 l 103 268 l 103 258 q 106 169 103 203 q 113 116 108 135 q 124 91 118 97 q 135 85 129 85 q 152 99 146 85 q 161 130 158 113 q 165 162 164 147 q 167 179 167 176 l 167 256 l 167 369 l 269 369 l 269 276 z "},"n":{"ha":371,"x_min":0,"x_max":329,"o":"m 226 951 l 226 1579 l 329 1579 l 329 414 l 278 414 l 226 414 l 197 414 l 104 1322 l 104 414 l 1 414 l 0 1579 l 167 1579 l 226 951 m 104 1622 l 0 1622 l 0 1983 l 167 1983 l 201 1622 l 114 1622 l 104 1726 l 104 1622 m 226 1983 l 329 1983 l 329 1622 l 226 1622 l 226 1983 m 1 369 l 104 369 l 104 1 l 1 1 l 1 369 m 197 1 l 160 369 l 329 369 l 329 1 l 278 1 l 226 1 l 197 1 z "},"m":{"ha":493,"x_min":0,"x_max":451,"o":"m 226 957 l 285 1579 l 451 1579 l 450 413 l 346 413 l 347 1325 l 278 414 l 175 414 l 104 1324 l 104 414 l 1 414 l 0 1579 l 167 1579 l 226 957 m 347 1729 l 339 1622 l 250 1622 l 285 1983 l 451 1983 l 451 1622 l 347 1622 l 347 1729 m 104 1622 l 0 1622 l 0 1983 l 167 1983 l 201 1622 l 111 1622 l 104 1728 l 104 1622 m 1 369 l 104 369 l 104 1 l 1 1 l 1 369 m 175 1 l 146 369 l 306 369 l 278 1 l 175 1 m 346 0 l 347 369 l 450 369 l 450 0 l 346 0 z "},"l":{"ha":265,"x_min":0,"x_max":224,"o":"m 103 513 l 224 513 l 224 414 l 0 414 l 0 1579 l 103 1579 l 103 513 m 103 1983 l 103 1622 l 0 1622 l 0 1983 l 103 1983 m 103 369 l 103 100 l 224 100 l 224 1 l 0 1 l 0 369 l 103 369 z "},"k":{"ha":353,"x_min":0,"x_max":311,"o":"m 204 1579 l 311 1579 l 174 1104 l 310 414 l 206 414 l 111 889 l 103 858 l 103 414 l 0 414 l 0 1579 l 103 1579 l 103 1229 l 204 1579 m 311 1983 l 207 1622 l 0 1622 l 0 1983 l 103 1983 l 103 1633 l 204 1983 l 311 1983 m 0 1 l 0 369 l 103 369 l 103 1 l 0 1 m 132 369 l 238 369 l 310 1 l 206 1 l 132 369 z "},"j":{"ha":311,"x_min":0,"x_max":269,"o":"m 269 1582 l 269 1061 l 269 676 l 269 675 q 261 547 269 599 q 236 461 253 494 q 135 397 201 397 q 72 415 99 397 q 28 465 46 433 q 13 501 18 481 q 6 542 8 522 q 0 588 1 564 l 0 693 l 103 707 l 103 596 q 104 578 103 593 q 108 544 106 563 q 117 513 111 526 q 135 499 124 499 q 146 505 140 499 q 156 531 151 511 q 164 584 161 550 q 167 675 167 618 l 167 686 l 167 1090 l 167 1582 l 269 1582 m 269 1622 l 167 1622 l 167 1986 l 269 1986 l 269 1622 m 167 369 l 269 369 l 269 264 l 269 263 q 261 134 269 186 q 236 49 253 82 q 135 -15 201 -15 q 72 3 99 -15 q 28 53 46 21 q 13 89 18 68 q 6 129 8 110 q 0 175 1 151 l 0 281 l 103 293 l 103 183 q 104 165 103 181 q 108 132 106 150 q 117 100 111 114 q 135 86 124 86 q 146 92 140 86 q 156 117 151 99 q 164 171 161 136 q 167 263 167 206 l 167 274 l 167 369 z "},"i":{"ha":144,"x_min":0,"x_max":103,"o":"m 0 414 l 0 1579 l 103 1579 l 103 414 l 0 414 m 0 1983 l 103 1983 l 103 1622 l 0 1622 l 0 1983 m 0 1 l 0 369 l 103 369 l 103 1 l 0 1 z "},"h":{"ha":318,"x_min":0,"x_max":276,"o":"m 174 1051 l 174 1579 l 276 1579 l 276 414 l 174 414 l 174 949 l 103 949 l 103 414 l 0 414 l 0 1579 l 103 1579 l 103 1051 l 174 1051 m 174 1983 l 276 1983 l 276 1622 l 174 1622 l 174 1983 m 103 1983 l 103 1622 l 0 1622 l 0 1983 l 103 1983 m 0 1 l 0 369 l 103 369 l 103 1 l 0 1 m 174 1 l 174 369 l 276 369 l 276 1 l 174 1 z "},"g":{"ha":311,"x_min":0,"x_max":269,"o":"m 135 1592 q 197 1574 171 1592 q 242 1525 224 1557 q 256 1489 250 1510 q 264 1449 261 1468 q 269 1404 268 1426 l 269 1300 l 167 1288 l 167 1396 q 165 1414 167 1399 q 161 1447 164 1429 q 152 1478 158 1464 q 135 1492 146 1492 q 124 1485 129 1492 q 113 1460 118 1479 q 106 1408 108 1442 q 103 1318 103 1374 l 103 1317 l 103 1313 l 103 1307 l 103 1081 l 103 682 l 103 671 q 106 581 103 615 q 113 528 108 547 q 124 503 118 510 q 135 497 129 497 q 152 511 146 497 q 161 542 158 525 q 165 574 164 560 q 167 592 167 589 l 167 946 l 129 946 l 129 1047 l 269 1047 l 269 976 l 269 946 l 269 585 q 264 540 268 563 q 256 500 261 521 q 242 464 250 479 q 197 415 224 432 q 135 397 171 397 q 33 461 68 397 q 8 544 17 493 q 0 669 0 594 l 0 671 l 0 682 l 0 1051 l 0 1307 l 0 1313 l 0 1318 q 8 1444 0 1393 q 33 1528 17 1496 q 135 1592 68 1592 m 242 1929 q 256 1893 250 1914 q 264 1853 261 1872 q 269 1808 268 1831 l 269 1704 l 167 1692 l 167 1800 q 165 1818 167 1803 q 161 1851 164 1833 q 152 1882 158 1868 q 135 1896 146 1896 q 124 1890 129 1896 q 113 1865 118 1883 q 106 1812 108 1846 q 103 1722 103 1778 l 103 1721 l 103 1717 l 103 1711 l 103 1622 l 0 1622 l 0 1711 l 0 1717 l 0 1722 q 8 1849 0 1797 q 33 1932 17 1900 q 135 1994 67 1994 q 197 1977 171 1994 q 242 1929 224 1960 m 167 369 l 269 369 l 269 172 q 264 128 268 150 q 256 88 261 108 q 242 51 250 67 q 197 2 224 19 q 135 -15 171 -15 q 33 47 68 -15 q 0 256 0 111 l 0 258 l 0 268 l 0 369 l 103 369 l 103 268 l 103 258 q 106 169 103 203 q 113 116 108 135 q 124 91 118 97 q 135 85 129 85 q 152 99 146 85 q 161 130 158 113 q 165 162 164 147 q 167 179 167 176 l 167 369 z "},"f":{"ha":265,"x_min":0,"x_max":224,"o":"m 0 413 l 0 1579 l 224 1579 l 224 1476 l 103 1476 l 103 1051 l 185 1051 l 185 947 l 103 947 l 103 413 l 0 413 m 0 1983 l 224 1983 l 224 1881 l 103 1881 l 103 1622 l 0 1622 l 0 1983 m 0 0 l 0 369 l 103 369 l 103 0 l 0 0 z "},"e":{"ha":265,"x_min":0,"x_max":224,"o":"m 0 413 l 0 1579 l 224 1579 l 224 1476 l 103 1476 l 103 1051 l 185 1051 l 185 947 l 103 947 l 103 511 l 224 511 l 224 413 l 0 413 m 0 1983 l 224 1983 l 224 1881 l 103 1881 l 103 1622 l 0 1622 l 0 1983 m 103 369 l 103 99 l 224 99 l 224 0 l 0 0 l 0 369 l 103 369 z "},"d":{"ha":376,"x_min":0,"x_max":335,"o":"m 335 992 l 335 956 l 333 956 q 324 808 332 879 q 304 676 317 738 q 183 435 264 493 q 140 410 161 418 q 99 397 118 401 l 0 397 l 0 1025 l 0 1592 l 50 1592 q 65 1591 53 1592 q 97 1586 78 1590 q 138 1574 115 1582 q 183 1550 161 1565 q 304 1307 265 1489 q 324 1175 317 1246 q 333 1028 332 1104 l 335 1028 l 335 992 m 203 699 q 224 836 217 761 q 232 992 231 911 q 224 1147 231 1072 q 203 1285 217 1222 q 181 1366 192 1333 q 158 1419 169 1399 q 138 1449 147 1439 q 124 1464 129 1460 q 113 1469 118 1467 q 103 1475 108 1472 l 103 958 l 103 508 q 113 514 108 511 q 124 519 118 517 q 138 534 129 524 q 158 565 147 544 q 181 617 169 585 q 203 699 192 650 m 103 1622 l 0 1622 l 0 1994 l 50 1994 q 65 1994 53 1994 q 97 1990 78 1994 q 138 1978 115 1986 q 183 1953 161 1969 q 304 1711 264 1894 q 313 1668 308 1690 q 319 1622 317 1646 l 215 1622 q 210 1657 213 1640 q 203 1689 207 1674 q 181 1770 192 1738 q 158 1823 169 1803 q 138 1853 147 1843 q 124 1868 129 1864 q 113 1874 118 1871 q 103 1879 108 1876 l 103 1622 m 203 286 q 211 326 207 306 q 218 369 215 347 l 321 369 q 304 264 315 315 q 183 21 265 82 q 140 -3 161 6 q 99 -15 118 -11 l 0 -15 l 0 369 l 103 369 l 103 96 q 113 101 108 99 q 124 107 118 104 q 138 122 129 111 q 158 152 147 132 q 181 205 169 172 q 203 286 192 238 z "},"c":{"ha":311,"x_min":0,"x_max":269,"o":"m 135 1592 q 197 1574 171 1592 q 242 1525 224 1557 q 256 1489 250 1510 q 264 1449 261 1468 q 269 1404 268 1426 l 269 1300 l 167 1288 l 167 1397 q 165 1414 167 1399 q 161 1447 164 1429 q 152 1478 158 1464 q 135 1492 146 1492 q 124 1485 129 1492 q 113 1460 118 1479 q 106 1408 108 1442 q 103 1318 103 1374 l 103 1313 l 103 1307 l 103 1081 l 103 682 l 103 671 q 106 581 103 615 q 113 528 108 547 q 124 503 118 510 q 135 497 129 497 q 152 511 146 497 q 161 542 158 525 q 165 574 164 560 q 167 592 167 589 l 167 701 l 269 689 l 269 585 q 264 540 268 563 q 256 500 261 521 q 242 464 250 479 q 197 415 224 432 q 135 397 171 397 q 33 461 68 397 q 8 544 17 493 q 0 669 0 594 l 0 671 l 0 682 l 0 1053 l 0 1307 l 0 1313 l 0 1318 q 8 1444 0 1393 q 33 1529 17 1496 q 135 1592 68 1592 m 242 1929 q 256 1893 250 1914 q 264 1853 261 1872 q 269 1808 268 1831 l 269 1704 l 167 1692 l 167 1801 q 165 1818 167 1803 q 161 1851 164 1833 q 152 1882 158 1868 q 135 1896 146 1896 q 124 1890 129 1896 q 113 1865 118 1883 q 106 1812 108 1846 q 103 1722 103 1778 l 103 1721 l 103 1717 l 103 1711 l 103 1622 l 0 1622 l 0 1711 l 0 1717 l 0 1722 q 8 1849 0 1797 q 33 1932 17 1900 q 135 1996 68 1996 q 197 1978 171 1996 q 242 1929 224 1961 m 167 289 l 269 276 l 269 172 q 264 128 268 150 q 256 88 261 108 q 242 51 250 67 q 197 2 224 19 q 135 -15 171 -15 q 33 47 68 -15 q 0 256 0 111 l 0 258 l 0 269 l 0 369 l 103 369 l 103 269 l 103 258 q 106 169 103 203 q 113 116 108 135 q 124 91 118 97 q 135 85 129 85 q 152 99 146 85 q 161 130 158 113 q 165 162 164 147 q 167 179 167 176 l 167 289 z "},"b":{"ha":378,"x_min":0,"x_max":336,"o":"m 335 1267 q 333 1235 335 1261 q 322 1175 331 1210 q 296 1101 314 1140 q 244 1028 278 1061 q 231 1015 238 1021 q 215 1004 224 1010 q 231 992 224 997 q 244 979 238 986 q 296 906 278 946 q 322 832 314 867 q 333 772 331 797 q 335 740 335 746 q 327 645 336 692 q 300 560 318 599 q 169 433 256 463 q 99 418 133 421 q 54 415 65 415 l 50 415 l 0 417 l 0 422 l 0 1540 l 0 1590 l 50 1592 q 92 1590 56 1592 q 169 1574 129 1588 q 300 1447 256 1544 q 327 1362 318 1408 q 335 1267 336 1315 m 232 740 q 231 760 232 742 q 224 803 229 778 q 206 856 218 828 q 171 907 193 885 q 103 944 142 936 l 103 739 l 103 522 q 120 526 111 525 q 138 531 129 528 q 207 603 182 546 q 226 666 219 631 q 232 739 233 701 l 232 740 m 232 1268 q 226 1341 233 1306 q 207 1406 219 1376 q 138 1476 182 1461 q 103 1485 121 1482 l 103 1268 l 103 1063 q 171 1101 144 1072 q 206 1152 193 1124 q 224 1206 218 1181 q 231 1249 229 1231 q 232 1267 232 1267 l 232 1268 m 103 1622 l 0 1622 l 0 1944 l 0 1994 l 50 1996 q 92 1994 56 1996 q 169 1978 129 1992 q 300 1851 256 1949 q 327 1766 318 1813 q 335 1671 336 1719 q 331 1622 335 1660 l 226 1622 q 231 1656 231 1643 q 232 1671 232 1669 l 232 1672 q 226 1745 233 1710 q 207 1808 219 1781 q 138 1881 182 1865 q 103 1889 121 1886 l 103 1672 l 103 1622 m 332 369 q 335 342 335 353 q 335 328 335 331 q 327 233 336 279 q 300 147 318 186 q 169 21 256 50 q 99 6 133 8 q 54 3 65 3 l 50 3 l 0 4 l 0 10 l 0 369 l 103 369 l 103 326 l 103 110 q 138 118 121 113 q 207 189 182 133 q 226 253 219 218 q 232 326 233 289 l 232 328 q 231 340 232 329 q 228 369 231 351 l 332 369 z "},"a":{"ha":389,"x_min":0,"x_max":347,"o":"m 125 694 l 103 414 l 0 414 l 90 1579 l 257 1579 l 347 414 l 244 414 l 222 694 l 125 694 m 174 1321 l 133 797 l 214 797 l 174 1321 m 174 1725 l 165 1622 l 63 1622 l 90 1983 l 257 1983 l 285 1622 l 182 1622 l 174 1725 m 29 369 l 318 369 l 347 1 l 244 1 l 222 281 l 125 281 l 103 1 l 0 1 l 29 369 z "},"_":{"ha":381,"x_min":0,"x_max":339,"o":"m 0 0 l 0 104 l 339 104 l 339 0 l 0 0 l 0 0 z "},"":{"ha":424,"x_min":0,"x_max":382,"o":"m 329 1554 q 365 1482 353 1529 q 378 1413 374 1451 q 382 1321 382 1374 l 279 1310 q 277 1383 279 1342 q 267 1456 275 1424 q 259 1478 263 1471 q 253 1488 256 1485 q 247 1489 250 1489 l 244 1489 q 240 1484 243 1489 q 233 1460 238 1479 q 223 1400 228 1440 q 213 1289 218 1360 l 213 1129 l 322 1129 l 322 1029 l 213 1029 l 213 968 l 322 968 l 322 867 l 213 867 l 213 678 l 213 674 l 213 668 q 215 579 213 613 q 223 527 218 546 q 233 502 228 508 q 244 496 239 496 q 262 510 256 496 q 271 540 268 524 q 275 572 274 557 q 276 590 276 588 l 276 697 l 379 685 l 379 582 q 374 538 378 560 q 365 499 371 518 q 351 464 360 479 q 307 415 333 432 q 244 397 281 397 q 143 460 178 397 q 110 668 110 524 l 110 674 l 110 678 l 110 867 l 0 867 l 0 968 l 110 968 l 110 1029 l 0 1029 l 0 1129 l 110 1129 l 110 1276 l 110 1278 l 110 1292 q 111 1338 110 1308 q 117 1402 113 1368 q 128 1469 121 1436 q 146 1526 135 1503 q 188 1574 161 1558 q 247 1590 214 1590 q 329 1554 297 1590 z "},"@":{"ha":729,"x_min":0,"x_max":688,"o":"m 626 1343 q 688 926 688 1200 l 688 899 l 688 879 q 678 830 685 860 q 656 772 672 800 q 610 722 639 743 q 533 701 581 701 q 454 718 482 701 q 411 756 426 735 q 407 753 410 756 q 308 717 367 717 q 281 719 297 717 q 248 731 265 722 q 213 756 231 740 q 182 800 196 772 q 156 876 163 836 q 149 946 150 915 q 155 1038 147 993 q 178 1118 163 1082 q 210 1171 192 1151 q 247 1201 228 1190 q 282 1215 265 1211 q 311 1218 299 1218 q 371 1207 342 1218 l 371 1235 l 474 1235 l 474 892 l 474 876 q 476 853 474 867 q 484 826 478 839 q 502 806 490 814 q 533 797 514 797 q 560 810 550 797 q 575 838 569 822 q 583 869 581 854 q 585 890 585 885 l 585 926 q 529 1314 585 1185 q 485 1388 510 1360 q 436 1430 461 1415 q 388 1449 411 1444 q 343 1453 364 1453 q 299 1448 322 1453 q 250 1428 275 1443 q 201 1387 225 1414 q 158 1314 178 1360 q 103 926 103 1185 q 129 722 103 799 q 183 607 156 646 q 218 571 197 586 q 261 545 239 556 q 306 530 283 535 q 344 525 328 525 q 434 546 392 525 q 504 607 476 567 q 513 620 508 614 q 522 633 517 626 l 626 618 q 593 563 613 589 q 490 468 549 500 q 433 447 475 460 q 343 435 392 435 q 254 447 296 435 q 197 468 213 460 q 94 563 139 500 q 26 714 49 628 q 6 815 13 761 q 0 926 0 868 q 15 1167 0 1065 q 63 1343 31 1269 q 167 1483 100 1436 q 343 1539 239 1539 q 522 1483 449 1539 q 626 1343 586 1436 m 332 814 q 347 841 340 822 q 358 883 354 860 q 365 934 363 907 q 368 985 367 961 l 368 1046 q 363 1082 368 1057 q 340 1122 357 1107 q 331 1128 338 1125 q 314 1131 325 1131 q 296 1119 307 1131 q 274 1085 285 1108 q 251 944 247 1025 q 258 883 251 911 q 275 835 264 854 q 287 815 279 826 q 306 804 294 804 q 332 814 322 804 z "},"`":{"ha":1157,"x_min":0,"x_max":122,"o":"m 0 2065 l 101 2083 l 122 1808 l 75 1797 l 0 2065 l 0 2065 z "},"!":{"ha":144,"x_min":0,"x_max":103,"o":"m 0 1579 l 103 1579 l 103 629 l 0 629 l 0 1579 m 0 397 l 0 585 l 103 585 l 103 397 l 0 397 z "},"\"":{"ha":281,"x_min":0,"x_max":239,"o":"m 0 2083 l 111 2083 l 111 1957 l 74 1885 l 46 1896 l 58 1957 l 0 1957 l 0 2083 m 239 2083 l 239 1957 l 200 1885 l 174 1896 l 186 1957 l 128 1957 l 128 2083 l 239 2083 z "},"#":{"ha":533,"x_min":0,"x_max":492,"o":"m 444 1579 l 396 1181 l 492 1181 l 492 1082 l 383 1082 l 361 900 l 476 900 l 476 800 l 350 800 l 303 414 l 200 414 l 247 800 l 182 800 l 135 414 l 32 414 l 79 800 l 0 800 l 0 900 l 92 900 l 114 1082 l 15 1082 l 15 1181 l 126 1181 l 174 1579 l 276 1579 l 229 1181 l 293 1181 l 342 1579 l 444 1579 m 258 900 l 281 1082 l 217 1082 l 194 900 l 258 900 z "},"$":{"ha":318,"x_min":0,"x_max":276,"o":"m 189 1039 q 226 964 208 999 q 253 908 244 929 q 269 818 267 872 q 268 715 271 764 l 268 704 q 260 587 268 633 q 235 510 251 540 q 196 469 217 483 l 196 394 l 93 394 l 93 460 q 51 485 69 468 q 15 550 28 511 q 5 596 8 571 q 0 653 1 621 l 101 675 q 105 623 103 650 q 114 575 107 596 q 122 555 118 561 q 129 546 126 549 q 133 543 131 543 q 136 544 135 543 q 142 551 138 544 q 151 574 146 557 q 161 622 157 590 q 165 704 165 653 l 165 717 q 156 878 169 842 q 131 931 149 897 q 94 1000 114 964 q 50 1088 71 1047 q 21 1156 29 1129 q 9 1215 11 1183 q 7 1274 7 1246 l 7 1275 q 15 1392 7 1346 q 40 1469 22 1439 q 93 1517 58 1501 l 93 1592 l 196 1592 l 196 1514 q 224 1493 213 1504 q 260 1428 247 1469 q 276 1292 275 1378 l 174 1283 q 170 1344 172 1311 q 160 1404 168 1378 q 152 1424 156 1418 q 146 1433 149 1431 q 142 1435 144 1435 l 138 1435 q 133 1428 138 1435 q 123 1406 128 1422 q 114 1358 118 1389 q 110 1275 110 1326 l 110 1274 q 110 1256 110 1267 q 110 1232 110 1244 q 113 1206 111 1219 q 118 1183 115 1193 q 147 1120 126 1161 q 189 1039 168 1079 z "},"%":{"ha":429,"x_min":0,"x_max":388,"o":"m 307 1403 l 174 664 l 71 664 l 204 1403 l 307 1403 m 79 1154 q 48 1163 67 1154 q 14 1203 29 1171 q 0 1276 0 1238 q 14 1350 0 1315 q 48 1390 29 1382 q 79 1399 67 1399 l 81 1399 l 82 1399 q 114 1390 94 1399 q 147 1350 133 1382 q 161 1276 161 1315 q 147 1203 161 1238 q 114 1163 133 1171 q 82 1154 94 1154 l 81 1154 l 79 1154 m 61 1219 q 71 1203 65 1208 q 79 1197 76 1199 l 81 1197 l 82 1197 q 90 1203 85 1199 q 100 1219 96 1208 q 113 1276 110 1242 q 100 1333 110 1311 q 90 1349 96 1344 q 82 1356 85 1354 l 81 1356 l 79 1356 q 71 1349 76 1354 q 61 1333 65 1344 q 50 1276 50 1308 q 61 1219 50 1244 m 374 924 q 388 850 388 889 q 374 776 388 811 q 340 736 358 744 q 308 728 321 728 l 307 728 l 304 728 q 274 736 293 728 q 240 776 254 744 q 226 850 226 811 q 240 924 226 889 q 274 964 254 956 q 304 972 293 972 l 307 972 l 308 972 q 340 964 321 972 q 374 924 358 956 m 326 793 q 338 850 338 818 q 326 907 338 882 q 317 923 322 918 q 308 929 311 928 l 307 929 l 306 929 q 286 907 296 926 q 275 850 278 882 q 286 793 278 818 q 306 771 296 774 l 307 771 l 308 771 q 317 777 311 772 q 326 793 322 782 z "},"&":{"ha":404,"x_min":-1,"x_max":363,"o":"m 363 953 l 314 863 l 271 885 l 269 640 q 259 534 267 578 q 236 461 251 490 q 135 396 203 396 q 53 433 83 396 q 17 506 29 458 q 4 578 8 538 q 0 676 0 618 l 0 678 l 0 682 q 22 863 0 785 q 89 986 44 940 q 83 992 86 989 q 78 997 81 994 q 4 1199 17 1065 q 0 1281 -1 1247 q 1 1315 1 1314 q 5 1361 3 1333 q 10 1419 7 1389 q 20 1477 14 1449 q 36 1525 26 1506 q 138 1590 68 1590 q 219 1553 186 1590 q 256 1479 244 1524 q 268 1410 264 1450 q 272 1315 272 1371 l 169 1304 q 167 1379 169 1338 q 156 1453 165 1421 q 149 1475 153 1468 q 142 1485 144 1482 q 138 1488 140 1488 l 135 1488 q 129 1482 133 1488 q 120 1456 125 1476 q 110 1396 115 1436 q 103 1283 106 1356 q 103 1249 103 1268 q 106 1207 103 1231 q 123 1123 111 1158 q 153 1068 135 1088 q 168 1056 163 1058 l 168 1132 l 271 1132 l 271 1001 l 363 953 m 167 703 l 168 921 q 160 911 163 915 q 122 833 140 888 q 103 676 103 778 q 105 604 103 644 q 115 533 107 564 q 124 510 119 518 q 131 500 128 503 q 135 499 132 499 l 138 499 q 143 506 139 499 q 153 531 147 513 q 163 585 158 550 q 167 678 167 619 l 167 681 l 167 703 z "},"'":{"ha":154,"x_min":0,"x_max":113,"o":"m 58 1958 l 0 1958 l 0 2085 l 111 2085 l 111 1958 l 113 1958 l 74 1886 l 46 1897 l 58 1958 z "},"(":{"ha":239,"x_min":-1,"x_max":197,"o":"m 117 1261 q 104 1068 108 1175 q 107 840 100 961 q 135 588 114 719 q 197 321 156 456 l 99 290 q 38 549 61 417 q 6 822 14 682 q 1 1047 -1 933 q 15 1274 3 1160 q 40 1451 25 1371 q 67 1587 54 1531 q 89 1675 79 1643 q 99 1710 99 1707 l 149 1694 l 197 1679 q 188 1647 197 1678 q 167 1562 179 1617 q 140 1431 154 1507 q 117 1261 126 1354 z "},")":{"ha":240,"x_min":0,"x_max":200,"o":"m 99 1710 q 108 1675 99 1707 q 131 1587 118 1643 q 157 1451 143 1531 q 182 1274 171 1371 q 197 1047 194 1160 q 193 822 200 933 q 99 290 175 546 l 0 321 q 63 588 42 456 q 90 841 83 719 q 93 1070 97 963 q 79 1264 89 1178 q 56 1433 69 1357 q 31 1564 43 1510 q 9 1648 18 1618 q 0 1679 0 1678 l 99 1710 l 99 1710 z "},"*":{"ha":367,"x_min":0,"x_max":325,"o":"m 325 1811 l 258 1771 l 324 1729 l 267 1643 l 214 1678 l 214 1614 l 111 1614 l 111 1682 l 53 1646 l 0 1735 l 65 1775 l 1 1817 l 58 1903 l 111 1868 l 111 1932 l 214 1932 l 214 1864 l 272 1899 l 325 1811 l 325 1811 z "},"+":{"ha":343,"x_min":0,"x_max":301,"o":"m 201 1151 l 201 1031 l 301 1031 l 301 928 l 201 928 l 201 799 l 99 799 l 99 928 l 0 928 l 0 1031 l 99 1031 l 99 1151 l 201 1151 l 201 1151 z "},",":{"ha":154,"x_min":0,"x_max":113,"o":"m 111 158 l 111 33 l 113 33 l 74 -39 l 46 -28 l 58 33 l 0 33 l 0 158 l 111 158 l 111 158 z "},"-":{"ha":242,"x_min":0,"x_max":200,"o":"m 0 928 l 0 1031 l 200 1031 l 200 928 l 0 928 l 0 928 z "},".":{"ha":153,"x_min":0,"x_max":111,"o":"m 0 33 l 0 158 l 111 158 l 111 33 l 0 33 l 0 33 z "},"/":{"ha":356,"x_min":0,"x_max":314,"o":"m 0 446 l 213 1750 l 314 1733 l 101 429 l 0 446 l 0 446 z "},":":{"ha":153,"x_min":0,"x_max":111,"o":"m 111 869 l 111 743 l 0 743 l 0 869 l 111 869 m 0 574 l 111 574 l 111 447 l 0 447 l 0 574 z "},";":{"ha":154,"x_min":0,"x_max":113,"o":"m 111 869 l 111 743 l 0 743 l 0 869 l 111 869 m 111 449 l 113 447 l 74 375 l 46 386 l 58 447 l 0 447 l 0 574 l 111 574 l 111 449 z "},"<":{"ha":322,"x_min":0,"x_max":281,"o":"m 281 296 l 0 615 l 281 886 l 281 732 l 154 610 l 281 464 l 281 296 l 281 296 l 281 296 z "},"=":{"ha":242,"x_min":0,"x_max":200,"o":"m 0 1183 l 200 1183 l 200 1081 l 0 1081 l 0 1183 m 0 799 l 0 901 l 200 901 l 200 799 l 0 799 z "},">":{"ha":322,"x_min":0,"x_max":281,"o":"m 0 886 l 281 615 l 0 296 l 0 296 l 0 464 l 128 610 l 0 732 l 0 886 l 0 886 z "},"?":{"ha":311,"x_min":0,"x_max":269,"o":"m 56 594 l 158 594 l 158 478 l 56 478 l 56 594 m 269 1407 l 269 1394 q 261 1367 269 1393 q 240 1298 253 1340 q 213 1201 228 1256 q 187 1090 199 1147 q 167 980 175 1033 q 158 885 158 926 l 158 707 l 56 707 l 56 885 q 70 1027 56 949 q 104 1178 85 1106 q 142 1307 124 1250 q 167 1385 160 1364 l 167 1407 l 167 1410 q 163 1503 167 1468 q 153 1556 158 1538 q 143 1582 147 1575 q 138 1589 139 1589 l 135 1589 q 131 1586 132 1589 q 124 1576 128 1583 q 115 1554 119 1569 q 105 1481 107 1522 q 103 1407 103 1439 l 0 1417 q 4 1512 0 1472 q 17 1582 8 1551 q 53 1654 29 1629 q 135 1692 83 1692 q 236 1626 203 1692 q 261 1540 253 1593 q 269 1410 269 1488 l 269 1407 z "},"^":{"ha":346,"x_min":8,"x_max":304,"o":"m 124 1925 l 8 1925 l 89 2082 l 222 2082 l 304 1925 l 303 1925 l 188 1925 l 156 1986 l 124 1925 z "},"]":{"ha":219,"x_min":0,"x_max":178,"o":"m 0 2083 l 0 2186 l 178 2186 l 178 -106 l 0 -106 l 0 -3 l 75 -3 l 75 2083 l 0 2083 l 0 2083 z "},"\\":{"ha":339,"x_min":0,"x_max":297,"o":"m 0 1711 l 101 1726 l 297 429 l 196 414 l 0 1711 l 0 1711 z "},"[":{"ha":219,"x_min":0,"x_max":178,"o":"m 0 -101 l 0 2186 l 178 2186 l 178 2083 l 103 2083 l 103 1 l 178 1 l 178 -101 l 0 -101 l 0 -101 z "},"{":{"ha":282,"x_min":0,"x_max":240,"o":"m 0 1111 q 12 1124 1 1113 q 35 1157 22 1136 q 58 1206 47 1178 q 68 1267 68 1233 l 68 1976 q 126 2124 68 2054 q 165 2160 147 2147 q 185 2175 182 2172 l 239 2088 l 240 2088 q 229 2079 240 2088 q 205 2056 218 2071 q 181 2022 192 2042 q 171 1976 171 2001 l 171 1267 q 158 1181 171 1219 q 128 1111 144 1142 q 158 1042 144 1082 q 171 956 171 1003 l 171 117 q 181 72 171 92 q 205 37 192 51 q 229 15 218 22 q 240 7 240 7 l 239 7 l 185 -81 q 165 -67 182 -79 q 126 -31 147 -54 q 68 117 68 39 l 68 956 q 58 1017 68 989 q 35 1065 47 1044 q 12 1098 22 1086 q 0 1111 1 1110 z "},"|":{"ha":144,"x_min":0,"x_max":103,"o":"m 0 0 l 0 2089 l 103 2089 l 103 0 l 0 0 l 0 0 z "},"}":{"ha":282,"x_min":0,"x_max":240,"o":"m 239 1111 q 227 1098 238 1110 q 204 1065 217 1086 q 181 1017 192 1044 q 171 956 171 989 l 171 99 q 113 -49 171 18 q 74 -85 92 -72 q 54 -99 57 -97 l 0 -11 q 33 19 18 3 q 57 54 46 35 q 68 99 68 74 l 68 956 q 81 1042 68 1003 q 113 1111 94 1082 q 81 1181 94 1142 q 68 1267 68 1219 l 68 1964 q 57 2009 68 1989 q 33 2044 46 2029 q 0 2075 18 2061 l 54 2163 q 74 2147 57 2160 q 113 2111 92 2135 q 171 1964 171 2044 l 171 1267 q 181 1206 171 1233 q 204 1157 192 1178 q 227 1124 217 1136 q 239 1111 238 1113 l 240 1111 l 239 1111 l 240 1111 l 239 1111 l 240 1111 l 239 1111 l 240 1111 l 239 1111 z "},"~":{"ha":517,"x_min":1,"x_max":475,"o":"m 396 640 q 440 651 419 643 q 475 668 460 658 l 475 546 q 456 542 465 543 q 438 539 447 542 q 410 537 424 538 q 378 536 396 536 q 274 546 331 536 q 150 583 217 556 q 72 611 110 603 q 1 619 33 619 l 1 722 q 272 664 136 722 q 396 640 343 635 z "},"":{"ha":314,"x_min":0,"x_max":272,"o":"m 219 1413 q 256 1340 243 1388 q 268 1272 264 1311 q 272 1179 272 1233 l 169 1168 q 167 1241 169 1200 q 157 1314 165 1282 q 149 1336 153 1329 q 143 1346 146 1343 q 138 1349 140 1349 q 135 1347 136 1349 q 131 1342 133 1347 q 123 1319 128 1338 q 113 1260 118 1300 q 103 1149 108 1219 l 103 1036 l 103 828 l 103 817 q 106 728 103 763 q 113 676 108 694 q 124 652 118 658 q 135 646 129 646 q 152 660 146 646 q 161 690 158 674 q 165 722 164 707 q 167 740 167 738 l 167 847 l 269 835 l 269 732 q 264 688 268 710 q 256 648 261 668 q 242 613 250 628 q 188 560 221 576 l 188 394 l 85 394 l 85 558 q 33 610 54 575 q 10 686 18 640 q 0 799 1 732 l 0 817 l 0 828 l 0 1019 l 0 1135 l 0 1138 l 0 1168 q 3 1216 1 1188 q 10 1275 6 1244 q 20 1335 14 1306 q 38 1385 26 1364 q 85 1436 54 1421 l 85 1592 l 188 1592 l 188 1438 q 205 1426 197 1432 q 219 1413 213 1419 z "},"":{"ha":433,"x_min":0,"x_max":392,"o":"m 339 1554 q 375 1482 363 1525 q 387 1414 383 1453 q 392 1322 390 1375 l 289 1311 q 287 1383 289 1343 q 275 1456 285 1424 q 267 1478 271 1471 q 261 1488 264 1485 q 257 1490 260 1490 l 253 1490 q 249 1485 253 1489 q 242 1462 246 1481 q 232 1404 238 1443 q 222 1296 226 1365 q 222 1291 222 1293 q 221 1286 221 1289 q 214 1191 218 1251 q 203 1054 210 1131 l 322 1054 l 322 954 l 193 954 q 167 726 182 842 q 132 514 151 610 l 389 514 l 389 414 l 3 414 l 18 476 q 39 577 29 521 q 58 696 49 633 q 74 824 67 758 q 89 954 82 890 l 0 954 l 0 1054 l 99 1054 q 110 1191 106 1131 q 118 1288 115 1251 q 119 1317 118 1289 q 124 1384 121 1346 q 135 1462 128 1422 q 156 1526 143 1501 q 197 1574 171 1558 q 257 1590 224 1590 q 339 1554 306 1590 z "},"":{"ha":364,"x_min":0,"x_max":322,"o":"m 217 1029 l 211 992 l 211 968 l 322 968 l 322 867 l 211 867 l 211 414 l 108 414 l 108 867 l 0 867 l 0 968 l 108 968 l 108 1010 l 106 1029 l 0 1029 l 0 1129 l 89 1129 l 18 1579 l 122 1579 l 161 1203 l 201 1579 l 306 1579 l 233 1129 l 322 1129 l 322 1029 l 217 1029 l 217 1029 z "},"":{"ha":832,"x_min":0,"x_max":790,"o":"m 674 1342 q 760 1214 731 1286 q 790 1063 790 1142 q 760 912 790 983 q 674 783 731 840 q 546 698 618 728 q 394 668 474 668 q 244 698 315 668 q 115 783 172 728 q 30 912 60 840 q 0 1063 0 983 q 30 1214 0 1142 q 115 1342 60 1286 q 244 1428 172 1399 q 394 1458 315 1458 q 546 1428 474 1458 q 674 1342 618 1399 m 394 771 q 508 794 454 771 q 601 856 561 817 q 663 949 640 896 q 686 1063 686 1001 q 663 1176 686 1122 q 601 1269 640 1229 q 508 1333 561 1310 q 394 1356 454 1356 q 281 1333 333 1356 q 188 1269 228 1310 q 126 1176 149 1229 q 103 1063 103 1122 q 126 949 103 1001 q 188 856 149 896 q 281 794 228 817 q 394 771 333 771 m 401 938 q 471 958 439 938 l 529 874 q 401 835 471 835 q 313 853 354 835 q 240 902 271 871 q 192 974 210 933 q 174 1063 174 1015 q 192 1151 174 1110 q 240 1224 210 1193 q 313 1274 271 1256 q 401 1292 354 1292 q 506 1265 456 1292 l 458 1175 q 401 1189 428 1189 q 313 1152 349 1189 q 276 1063 276 1115 q 313 974 276 1011 q 401 938 349 938 z "},"":{"ha":372,"x_min":0,"x_max":331,"o":"m 249 1324 l 249 1410 q 248 1424 249 1411 q 245 1450 247 1436 q 238 1475 243 1464 q 224 1486 232 1486 q 215 1481 219 1486 q 206 1461 210 1476 q 201 1419 203 1446 q 199 1347 199 1392 l 199 1344 l 199 1342 l 199 1339 q 199 1303 199 1328 q 206 1260 200 1278 q 228 1204 213 1240 q 261 1132 244 1168 q 292 1065 278 1096 q 313 1015 306 1035 q 325 936 324 983 q 325 844 326 889 l 325 843 l 325 838 l 325 833 q 297 665 325 715 q 218 615 271 615 l 214 615 q 188 482 210 525 q 107 432 160 432 q 22 485 51 432 q 11 513 15 497 q 4 544 7 529 q 0 581 1 561 l 0 664 l 82 674 l 82 588 q 83 573 82 585 q 85 547 83 561 q 93 522 88 533 q 107 511 99 511 q 116 516 111 511 q 124 536 121 521 q 130 578 128 551 q 132 650 132 606 l 133 658 l 133 663 q 125 806 135 772 q 105 852 118 822 q 76 914 92 882 q 41 992 57 956 q 18 1051 25 1028 q 8 1103 10 1075 q 6 1156 6 1132 l 6 1158 l 6 1164 q 33 1331 6 1279 q 114 1382 58 1382 l 117 1382 q 143 1514 121 1471 q 224 1565 171 1565 q 274 1551 253 1565 q 310 1513 294 1536 q 320 1483 317 1500 q 326 1451 324 1467 q 331 1415 329 1433 l 331 1333 l 249 1324 m 235 989 q 216 1035 229 1006 q 188 1097 203 1065 q 151 1175 168 1139 q 128 1235 135 1211 q 120 1267 122 1250 q 117 1301 118 1285 q 114 1303 117 1301 q 105 1298 110 1303 q 96 1278 100 1293 q 90 1235 92 1263 q 88 1164 88 1208 l 88 1161 l 88 1158 l 88 1156 q 88 1119 88 1144 q 96 1076 89 1094 q 119 1021 103 1057 q 151 949 135 985 q 181 882 167 913 q 201 832 194 851 q 213 769 211 807 q 215 694 215 732 l 218 694 q 227 699 222 694 q 235 719 232 704 q 241 762 239 735 q 243 833 243 789 l 243 842 l 243 846 q 235 989 247 956 z "},"":{"ha":485,"x_min":0,"x_max":443,"o":"m 222 1439 q 308 1422 268 1439 q 378 1374 349 1404 q 426 1303 408 1343 q 443 1217 443 1263 q 426 1131 443 1171 q 378 1060 408 1090 q 308 1012 349 1029 q 222 994 268 994 q 136 1012 176 994 q 65 1060 96 1029 q 17 1131 35 1090 q 0 1217 0 1171 q 17 1303 0 1263 q 65 1374 35 1343 q 136 1422 96 1404 q 222 1439 176 1439 m 222 1060 q 283 1072 254 1060 q 333 1106 311 1085 q 367 1155 354 1126 q 379 1217 379 1183 q 367 1278 379 1250 q 333 1328 354 1307 q 283 1361 311 1349 q 222 1374 254 1374 q 160 1361 189 1374 q 110 1328 132 1349 q 76 1278 89 1307 q 64 1217 64 1250 q 76 1155 64 1183 q 110 1106 89 1126 q 160 1072 132 1085 q 222 1060 189 1060 m 300 1189 q 268 1158 288 1169 l 307 1124 l 256 1099 l 204 1144 l 204 1099 l 151 1099 l 151 1192 l 149 1194 l 151 1194 l 151 1329 l 174 1332 q 190 1333 176 1332 q 219 1333 203 1335 q 255 1326 236 1332 q 289 1308 274 1321 q 315 1247 315 1285 q 300 1189 315 1215 m 240 1204 q 263 1247 263 1217 q 260 1261 263 1257 q 254 1268 257 1265 q 211 1281 239 1281 q 208 1281 208 1281 q 204 1282 207 1282 l 204 1196 l 215 1196 q 224 1197 217 1196 q 240 1204 232 1199 z "},"":{"ha":144,"x_min":0,"x_max":103,"o":"m 0 467 l 0 1418 l 103 1418 l 103 467 l 0 467 m 0 1626 l 103 1626 l 103 1510 l 0 1510 l 0 1626 z "},"":{"ha":264,"x_min":0,"x_max":222,"o":"m 222 1085 q 190 1006 222 1038 q 111 974 157 974 q 33 1006 65 974 q 0 1085 0 1038 q 33 1163 0 1131 q 111 1194 65 1194 q 190 1163 157 1194 q 222 1085 222 1131 z "},"":{"ha":176,"x_min":0,"x_max":135,"o":"m 135 658 q 115 610 135 631 q 68 590 96 590 q 20 610 40 590 q 0 658 0 631 q 20 706 0 686 q 68 726 40 726 q 115 706 96 726 q 135 658 135 686 z "},"":{"ha":508,"x_min":0,"x_max":467,"o":"m 135 96 q 115 48 135 68 q 68 28 96 28 q 20 48 40 28 q 0 96 0 68 q 20 144 0 124 q 68 164 40 164 q 115 144 96 164 q 135 96 135 124 m 300 96 q 281 48 300 68 q 233 28 261 28 q 185 48 206 28 q 165 96 165 68 q 185 144 165 124 q 233 164 206 164 q 281 144 261 164 q 300 96 300 124 m 467 96 q 447 48 467 68 q 399 28 426 28 q 351 48 371 28 q 332 96 332 68 q 351 144 332 124 q 399 164 371 164 q 447 144 426 164 q 467 96 467 124 z "},"":{"ha":281,"x_min":0,"x_max":239,"o":"m 181 2022 l 239 2022 l 239 1896 l 128 1896 l 128 2022 l 165 2094 l 193 2083 l 181 2022 m 65 2083 l 53 2022 l 111 2022 l 111 1896 l 0 1896 l 0 2022 l 38 2094 l 65 2083 z "},"":{"ha":154,"x_min":0,"x_max":113,"o":"m 67 2083 l 54 2022 l 113 2022 l 113 1896 l 1 1896 l 1 2021 l 0 2022 l 39 2094 l 67 2083 l 67 2083 z "},"":{"ha":154,"x_min":0,"x_max":113,"o":"m 46 1897 l 58 1958 l 0 1958 l 0 2085 l 111 2085 l 111 1958 l 113 1958 l 74 1886 l 46 1897 l 46 1897 z "},"":{"ha":281,"x_min":0,"x_max":239,"o":"m 0 1957 l 0 2083 l 111 2083 l 111 1957 l 74 1885 l 46 1896 l 58 1957 l 0 1957 m 128 2083 l 239 2083 l 239 1957 l 200 1885 l 174 1896 l 186 1957 l 128 1957 l 128 2083 z "},"":{"ha":561,"x_min":0,"x_max":519,"o":"m 281 1210 l 154 1088 l 281 942 l 281 774 l 281 774 l 0 1093 l 281 1364 l 281 1210 m 519 1364 l 519 1210 l 392 1088 l 519 942 l 519 774 l 519 774 l 238 1093 l 519 1364 z "},"":{"ha":547,"x_min":0,"x_max":506,"o":"m 224 1392 l 506 1121 l 224 801 l 224 801 l 224 969 l 351 1115 l 224 1238 l 224 1392 m 0 1392 l 281 1121 l 0 801 l 0 801 l 0 969 l 128 1115 l 0 1238 l 0 1392 z "},"":{"ha":347,"x_min":0,"x_max":296,"o":"m 149 2021 l 181 2082 l 296 2082 l 215 1925 l 82 1925 l 0 2082 l 1 2082 l 117 2082 l 149 2021 l 149 2021 z "},"":{"ha":338,"x_min":0,"x_max":296,"o":"m 147 1988 l 115 1926 l 0 1926 l 81 2083 l 213 2083 l 296 1928 l 294 1926 l 179 1926 l 147 1988 l 147 1988 z "},"":{"ha":281,"x_min":0,"x_max":239,"o":"m 0 1968 l 0 2085 l 103 2085 l 103 1968 l 0 1968 m 136 2085 l 239 2085 l 239 1968 l 136 1968 l 136 2085 z "},"":{"ha":297,"x_min":0,"x_max":256,"o":"m 256 1907 q 235 1901 249 1904 q 203 1897 219 1897 q 147 1908 178 1897 q 81 1946 117 1918 q 0 1981 38 1981 l 0 2083 q 146 2026 72 2083 q 213 2001 183 1994 q 236 2012 225 2004 q 256 2029 247 2019 l 256 1907 z "},"":{"ha":164,"x_min":0,"x_max":122,"o":"m 47 2051 l 0 2061 l 0 2281 l 122 2263 l 47 2051 l 47 2051 z "},"":{"ha":297,"x_min":-1,"x_max":256,"o":"m 235 -75 q 256 -143 256 -104 q 231 -219 256 -186 q 146 -260 197 -260 l -1 -260 l -1 -157 l 146 -157 l 149 -157 q 152 -151 151 -156 q 153 -142 153 -146 l 3 -142 l 75 40 l 171 1 l 154 -39 l 161 -39 q 203 -48 183 -39 q 235 -75 222 -57 z "},"":{"ha":389,"x_min":0,"x_max":347,"o":"m 125 694 l 103 414 l 0 414 l 90 1579 l 257 1579 l 347 414 l 244 414 l 222 694 l 125 694 m 174 1321 l 133 797 l 214 797 l 174 1321 m 174 1725 l 165 1622 l 63 1622 l 90 1983 l 257 1983 l 285 1622 l 182 1622 l 174 1725 m 29 369 l 318 369 l 347 1 l 244 1 l 222 281 l 125 281 l 103 1 l 0 1 l 29 369 m 82 2325 l 183 2343 l 204 2068 l 157 2057 l 82 2325 l 82 2325 z "},"":{"ha":389,"x_min":0,"x_max":347,"o":"m 125 694 l 103 414 l 0 414 l 90 1579 l 257 1579 l 347 414 l 244 414 l 222 694 l 125 694 m 174 1321 l 133 797 l 214 797 l 174 1321 m 174 1725 l 165 1622 l 63 1622 l 90 1983 l 257 1983 l 285 1622 l 182 1622 l 174 1725 m 29 369 l 318 369 l 347 1 l 244 1 l 222 281 l 125 281 l 103 1 l 0 1 l 29 369 m 175 2050 l 128 2060 l 128 2279 l 250 2261 l 175 2050 l 175 2050 z "},"":{"ha":389,"x_min":0,"x_max":347,"o":"m 125 694 l 103 414 l 0 414 l 90 1579 l 257 1579 l 347 414 l 244 414 l 222 694 l 125 694 m 174 1321 l 133 797 l 214 797 l 174 1321 m 174 1725 l 165 1622 l 63 1622 l 90 1983 l 257 1983 l 285 1622 l 182 1622 l 174 1725 m 29 369 l 318 369 l 347 1 l 244 1 l 222 281 l 125 281 l 103 1 l 0 1 l 29 369 m 171 2106 l 139 2044 l 24 2044 l 104 2201 l 236 2201 l 319 2046 l 318 2044 l 203 2044 l 171 2106 l 171 2106 z "},"":{"ha":389,"x_min":0,"x_max":347,"o":"m 125 694 l 103 414 l 0 414 l 90 1579 l 257 1579 l 347 414 l 244 414 l 222 694 l 125 694 m 174 1321 l 133 797 l 214 797 l 174 1321 m 174 1725 l 165 1622 l 63 1622 l 90 1983 l 257 1983 l 285 1622 l 182 1622 l 174 1725 m 29 369 l 318 369 l 347 1 l 244 1 l 222 281 l 125 281 l 103 1 l 0 1 l 29 369 m 294 2053 q 274 2047 288 2050 q 242 2043 258 2043 q 186 2053 217 2043 q 119 2092 156 2064 q 39 2126 76 2126 l 39 2229 q 185 2172 111 2229 q 251 2147 222 2140 q 275 2158 264 2150 q 294 2175 286 2165 l 294 2053 z "},"":{"ha":389,"x_min":0,"x_max":347,"o":"m 125 694 l 103 414 l 0 414 l 90 1579 l 257 1579 l 347 414 l 244 414 l 222 694 l 125 694 m 174 1321 l 133 797 l 214 797 l 174 1321 m 174 1725 l 165 1622 l 63 1622 l 90 1983 l 257 1983 l 285 1622 l 182 1622 l 174 1725 m 29 369 l 318 369 l 347 1 l 244 1 l 222 281 l 125 281 l 103 1 l 0 1 l 29 369 m 58 2029 l 58 2146 l 161 2146 l 161 2029 l 58 2029 m 194 2146 l 297 2146 l 297 2029 l 194 2029 l 194 2146 z "},"":{"ha":269,"x_min":8,"x_max":236,"o":"m 122 1856 q 42 1889 75 1856 q 8 1969 8 1922 q 42 2051 8 2018 q 122 2085 75 2085 q 203 2051 169 2085 q 236 1969 236 2018 q 203 1889 236 1922 q 122 1856 169 1856 m 122 2044 q 69 2023 92 2044 q 47 1969 47 2001 q 69 1917 47 1939 q 122 1896 92 1896 q 176 1917 154 1896 q 197 1969 197 1939 q 176 2023 197 2001 q 122 2044 154 2044 z "},"":{"ha":389,"x_min":0,"x_max":347,"o":"m 125 694 l 103 414 l 0 414 l 90 1579 l 257 1579 l 347 414 l 244 414 l 222 694 l 125 694 m 174 1321 l 133 797 l 214 797 l 174 1321 m 174 1725 l 165 1622 l 63 1622 l 90 1983 l 257 1983 l 285 1622 l 182 1622 l 174 1725 m 29 369 l 318 369 l 347 1 l 244 1 l 222 281 l 125 281 l 103 1 l 0 1 l 29 369 m 181 2039 q 104 2071 136 2039 q 72 2148 72 2103 q 104 2226 72 2194 q 181 2258 136 2258 q 258 2226 226 2258 q 289 2148 289 2194 q 258 2071 289 2103 q 181 2039 226 2039 m 181 2220 q 130 2199 151 2220 q 109 2148 109 2178 q 130 2098 109 2119 q 181 2078 151 2078 q 232 2098 211 2078 q 252 2148 252 2119 q 232 2199 252 2178 q 181 2220 211 2220 z "},"":{"ha":507,"x_min":0,"x_max":465,"o":"m 125 694 l 103 414 l 0 414 l 90 1579 l 257 1579 l 347 414 l 244 414 l 222 694 l 125 694 m 174 1321 l 133 797 l 214 797 l 174 1321 m 174 1725 l 165 1622 l 63 1622 l 90 1983 l 257 1983 l 285 1622 l 182 1622 l 174 1725 m 29 369 l 318 369 l 347 1 l 244 1 l 222 281 l 125 281 l 103 1 l 0 1 l 29 369 m 242 413 l 242 1579 l 465 1579 l 465 1476 l 344 1476 l 344 1051 l 426 1051 l 426 947 l 344 947 l 344 511 l 465 511 l 465 413 l 242 413 m 242 1983 l 465 1983 l 465 1881 l 344 1881 l 344 1622 l 242 1622 l 242 1983 m 344 369 l 344 99 l 465 99 l 465 0 l 242 0 l 242 369 l 344 369 z "},"":{"ha":325,"x_min":0,"x_max":283,"o":"m 135 1592 q 197 1574 171 1592 q 242 1525 224 1557 q 256 1489 250 1510 q 264 1449 261 1468 q 269 1404 268 1426 l 269 1300 l 167 1288 l 167 1397 q 165 1414 167 1399 q 161 1447 164 1429 q 152 1478 158 1464 q 135 1492 146 1492 q 124 1485 129 1492 q 113 1460 118 1479 q 106 1408 108 1442 q 103 1318 103 1374 l 103 1313 l 103 1307 l 103 1081 l 103 682 l 103 671 q 106 581 103 615 q 113 528 108 547 q 124 503 118 510 q 135 497 129 497 q 152 511 146 497 q 161 542 158 525 q 165 574 164 560 q 167 592 167 589 l 167 701 l 269 689 l 269 585 q 264 540 268 563 q 256 500 261 521 q 242 464 250 479 q 197 415 224 432 q 135 397 171 397 q 33 461 68 397 q 8 544 17 493 q 0 669 0 594 l 0 671 l 0 682 l 0 1053 l 0 1307 l 0 1313 l 0 1318 q 8 1444 0 1393 q 33 1529 17 1496 q 135 1592 68 1592 m 242 1929 q 256 1893 250 1914 q 264 1853 261 1872 q 269 1808 268 1831 l 269 1704 l 167 1692 l 167 1801 q 165 1818 167 1803 q 161 1851 164 1833 q 152 1882 158 1868 q 135 1896 146 1896 q 124 1890 129 1896 q 113 1865 118 1883 q 106 1812 108 1846 q 103 1722 103 1778 l 103 1721 l 103 1717 l 103 1711 l 103 1622 l 0 1622 l 0 1711 l 0 1717 l 0 1722 q 8 1849 0 1797 q 33 1932 17 1900 q 135 1996 68 1996 q 197 1978 171 1996 q 242 1929 224 1961 m 167 289 l 269 276 l 269 172 q 264 128 268 150 q 256 88 261 108 q 242 51 250 67 q 197 2 224 19 q 135 -15 171 -15 q 33 47 68 -15 q 0 256 0 111 l 0 258 l 0 269 l 0 369 l 103 369 l 103 269 l 103 258 q 106 169 103 203 q 113 116 108 135 q 124 91 118 97 q 135 85 129 85 q 152 99 146 85 q 161 130 158 113 q 165 162 164 147 q 167 179 167 176 l 167 289 m 263 -75 q 283 -143 283 -104 q 258 -219 283 -186 q 174 -260 225 -260 l 26 -260 l 26 -157 l 174 -157 l 176 -157 q 180 -151 179 -156 q 181 -142 181 -146 l 31 -142 l 103 40 l 199 1 l 182 -39 l 189 -39 q 231 -48 211 -39 q 263 -75 250 -57 z "},"":{"ha":265,"x_min":0,"x_max":224,"o":"m 0 413 l 0 1579 l 224 1579 l 224 1476 l 103 1476 l 103 1051 l 185 1051 l 185 947 l 103 947 l 103 511 l 224 511 l 224 413 l 0 413 m 0 1983 l 224 1983 l 224 1881 l 103 1881 l 103 1622 l 0 1622 l 0 1983 m 103 369 l 103 99 l 224 99 l 224 0 l 0 0 l 0 369 l 103 369 m 25 2315 l 126 2333 l 147 2058 l 100 2047 l 25 2315 l 25 2315 z "},"":{"ha":265,"x_min":0,"x_max":224,"o":"m 0 413 l 0 1579 l 224 1579 l 224 1476 l 103 1476 l 103 1051 l 185 1051 l 185 947 l 103 947 l 103 511 l 224 511 l 224 413 l 0 413 m 0 1983 l 224 1983 l 224 1881 l 103 1881 l 103 1622 l 0 1622 l 0 1983 m 103 369 l 103 99 l 224 99 l 224 0 l 0 0 l 0 369 l 103 369 m 113 2050 l 65 2060 l 65 2279 l 188 2261 l 113 2050 l 113 2050 z "},"":{"ha":322,"x_min":-15,"x_max":281,"o":"m 0 413 l 0 1579 l 224 1579 l 224 1476 l 103 1476 l 103 1051 l 185 1051 l 185 947 l 103 947 l 103 511 l 224 511 l 224 413 l 0 413 m 0 1983 l 224 1983 l 224 1881 l 103 1881 l 103 1622 l 0 1622 l 0 1983 m 103 369 l 103 99 l 224 99 l 224 0 l 0 0 l 0 369 l 103 369 m 132 2111 l 100 2050 l -15 2050 l 65 2207 l 197 2207 l 281 2051 l 279 2050 l 164 2050 l 132 2111 l 132 2111 z "},"":{"ha":293,"x_min":0,"x_max":251,"o":"m 0 413 l 0 1579 l 224 1579 l 224 1476 l 103 1476 l 103 1051 l 185 1051 l 185 947 l 103 947 l 103 511 l 224 511 l 224 413 l 0 413 m 0 1983 l 224 1983 l 224 1881 l 103 1881 l 103 1622 l 0 1622 l 0 1983 m 103 369 l 103 99 l 224 99 l 224 0 l 0 0 l 0 369 l 103 369 m 13 2046 l 13 2163 l 115 2163 l 115 2046 l 13 2046 m 149 2163 l 251 2163 l 251 2046 l 149 2046 l 149 2163 z "},"":{"ha":144,"x_min":-29,"x_max":103,"o":"m 0 414 l 0 1579 l 103 1579 l 103 414 l 0 414 m 0 1983 l 103 1983 l 103 1622 l 0 1622 l 0 1983 m 0 1 l 0 369 l 103 369 l 103 1 l 0 1 m -29 2326 l 72 2344 l 93 2069 l 46 2058 l -29 2326 l -29 2326 z "},"":{"ha":175,"x_min":0,"x_max":133,"o":"m 0 414 l 0 1579 l 103 1579 l 103 414 l 0 414 m 0 1983 l 103 1983 l 103 1622 l 0 1622 l 0 1983 m 0 1 l 0 369 l 103 369 l 103 1 l 0 1 m 58 2061 l 11 2071 l 11 2290 l 133 2272 l 58 2061 l 58 2061 z "},"":{"ha":256,"x_min":-82,"x_max":214,"o":"m 0 414 l 0 1579 l 103 1579 l 103 414 l 0 414 m 0 1983 l 103 1983 l 103 1622 l 0 1622 l 0 1983 m 0 1 l 0 369 l 103 369 l 103 1 l 0 1 m 65 2129 l 33 2068 l -82 2068 l -1 2225 l 131 2225 l 214 2069 l 213 2068 l 97 2068 l 65 2129 l 65 2129 z "},"":{"ha":222,"x_min":-58,"x_max":181,"o":"m 0 414 l 0 1579 l 103 1579 l 103 414 l 0 414 m 0 1983 l 103 1983 l 103 1622 l 0 1622 l 0 1983 m 0 1 l 0 369 l 103 369 l 103 1 l 0 1 m -58 2086 l -58 2203 l 44 2203 l 44 2086 l -58 2086 m 78 2203 l 181 2203 l 181 2086 l 78 2086 l 78 2203 z "},"":{"ha":371,"x_min":0,"x_max":329,"o":"m 226 951 l 226 1579 l 329 1579 l 329 414 l 278 414 l 226 414 l 197 414 l 104 1322 l 104 414 l 1 414 l 0 1579 l 167 1579 l 226 951 m 104 1622 l 0 1622 l 0 1983 l 167 1983 l 201 1622 l 114 1622 l 104 1726 l 104 1622 m 226 1983 l 329 1983 l 329 1622 l 226 1622 l 226 1983 m 1 369 l 104 369 l 104 1 l 1 1 l 1 369 m 197 1 l 160 369 l 329 369 l 329 1 l 278 1 l 226 1 l 197 1 m 307 2038 q 286 2032 300 2035 q 254 2028 271 2028 q 199 2038 229 2028 q 132 2076 168 2049 q 51 2111 89 2111 l 51 2214 q 197 2157 124 2214 q 264 2132 235 2125 q 288 2142 276 2135 q 307 2160 299 2150 l 307 2038 z "},"":{"ha":311,"x_min":0,"x_max":269,"o":"m 135 1592 q 197 1574 171 1592 q 242 1525 224 1557 q 256 1489 250 1510 q 264 1449 261 1468 q 269 1404 268 1426 l 269 1300 l 269 1081 l 269 689 l 269 585 q 264 540 268 563 q 256 500 261 521 q 242 464 250 479 q 197 415 224 432 q 135 397 171 397 q 33 461 68 397 q 8 544 17 493 q 0 669 0 594 l 0 671 l 0 682 l 0 1051 l 0 1307 l 0 1313 l 0 1318 q 8 1444 0 1393 q 33 1528 17 1496 q 135 1592 68 1592 m 167 1396 q 165 1414 167 1399 q 161 1447 164 1429 q 152 1478 158 1464 q 135 1492 146 1492 q 124 1485 129 1492 q 113 1460 118 1479 q 106 1408 108 1442 q 103 1318 103 1374 l 103 1317 l 103 1313 l 103 1307 l 103 1081 l 103 682 l 103 671 q 106 581 103 615 q 113 528 108 547 q 124 503 118 510 q 135 497 129 497 q 152 511 146 497 q 161 542 158 525 q 165 574 164 560 q 167 592 167 589 l 167 669 l 167 1051 l 167 1313 l 167 1317 l 167 1396 m 242 1929 q 256 1893 250 1914 q 264 1853 261 1872 q 269 1808 268 1831 l 269 1704 l 269 1622 l 167 1622 l 167 1717 l 167 1719 l 167 1800 q 165 1818 167 1803 q 161 1851 164 1833 q 152 1882 158 1868 q 135 1896 146 1896 q 124 1890 129 1896 q 113 1865 118 1883 q 106 1812 108 1846 q 103 1722 103 1778 l 103 1721 l 103 1717 l 103 1711 l 103 1622 l 0 1622 l 0 1711 l 0 1717 l 0 1722 q 8 1849 0 1797 q 33 1932 17 1900 q 135 1994 67 1994 q 197 1977 171 1994 q 242 1929 224 1960 m 269 276 l 269 172 q 264 128 268 150 q 256 88 261 108 q 242 51 250 67 q 197 2 224 19 q 135 -15 171 -15 q 33 47 68 -15 q 0 256 0 111 l 0 258 l 0 268 l 0 369 l 103 369 l 103 268 l 103 258 q 106 169 103 203 q 113 116 108 135 q 124 91 118 97 q 135 85 129 85 q 152 99 146 85 q 161 130 158 113 q 165 162 164 147 q 167 179 167 176 l 167 256 l 167 369 l 269 369 l 269 276 m 54 2332 l 156 2350 l 176 2075 l 129 2064 l 54 2332 l 54 2332 z "},"":{"ha":311,"x_min":0,"x_max":269,"o":"m 135 1592 q 197 1574 171 1592 q 242 1525 224 1557 q 256 1489 250 1510 q 264 1449 261 1468 q 269 1404 268 1426 l 269 1300 l 269 1081 l 269 689 l 269 585 q 264 540 268 563 q 256 500 261 521 q 242 464 250 479 q 197 415 224 432 q 135 397 171 397 q 33 461 68 397 q 8 544 17 493 q 0 669 0 594 l 0 671 l 0 682 l 0 1051 l 0 1307 l 0 1313 l 0 1318 q 8 1444 0 1393 q 33 1528 17 1496 q 135 1592 68 1592 m 167 1396 q 165 1414 167 1399 q 161 1447 164 1429 q 152 1478 158 1464 q 135 1492 146 1492 q 124 1485 129 1492 q 113 1460 118 1479 q 106 1408 108 1442 q 103 1318 103 1374 l 103 1317 l 103 1313 l 103 1307 l 103 1081 l 103 682 l 103 671 q 106 581 103 615 q 113 528 108 547 q 124 503 118 510 q 135 497 129 497 q 152 511 146 497 q 161 542 158 525 q 165 574 164 560 q 167 592 167 589 l 167 669 l 167 1051 l 167 1313 l 167 1317 l 167 1396 m 242 1929 q 256 1893 250 1914 q 264 1853 261 1872 q 269 1808 268 1831 l 269 1704 l 269 1622 l 167 1622 l 167 1717 l 167 1719 l 167 1800 q 165 1818 167 1803 q 161 1851 164 1833 q 152 1882 158 1868 q 135 1896 146 1896 q 124 1890 129 1896 q 113 1865 118 1883 q 106 1812 108 1846 q 103 1722 103 1778 l 103 1721 l 103 1717 l 103 1711 l 103 1622 l 0 1622 l 0 1711 l 0 1717 l 0 1722 q 8 1849 0 1797 q 33 1932 17 1900 q 135 1994 67 1994 q 197 1977 171 1994 q 242 1929 224 1960 m 269 276 l 269 172 q 264 128 268 150 q 256 88 261 108 q 242 51 250 67 q 197 2 224 19 q 135 -15 171 -15 q 33 47 68 -15 q 0 256 0 111 l 0 258 l 0 268 l 0 369 l 103 369 l 103 268 l 103 258 q 106 169 103 203 q 113 116 108 135 q 124 91 118 97 q 135 85 129 85 q 152 99 146 85 q 161 130 158 113 q 165 162 164 147 q 167 179 167 176 l 167 256 l 167 369 l 269 369 l 269 276 m 147 2061 l 100 2071 l 100 2290 l 222 2272 l 147 2061 l 147 2061 z "},"":{"ha":333,"x_min":-4,"x_max":292,"o":"m 135 1592 q 197 1574 171 1592 q 242 1525 224 1557 q 256 1489 250 1510 q 264 1449 261 1468 q 269 1404 268 1426 l 269 1300 l 269 1081 l 269 689 l 269 585 q 264 540 268 563 q 256 500 261 521 q 242 464 250 479 q 197 415 224 432 q 135 397 171 397 q 33 461 68 397 q 8 544 17 493 q 0 669 0 594 l 0 671 l 0 682 l 0 1051 l 0 1307 l 0 1313 l 0 1318 q 8 1444 0 1393 q 33 1528 17 1496 q 135 1592 68 1592 m 167 1396 q 165 1414 167 1399 q 161 1447 164 1429 q 152 1478 158 1464 q 135 1492 146 1492 q 124 1485 129 1492 q 113 1460 118 1479 q 106 1408 108 1442 q 103 1318 103 1374 l 103 1317 l 103 1313 l 103 1307 l 103 1081 l 103 682 l 103 671 q 106 581 103 615 q 113 528 108 547 q 124 503 118 510 q 135 497 129 497 q 152 511 146 497 q 161 542 158 525 q 165 574 164 560 q 167 592 167 589 l 167 669 l 167 1051 l 167 1313 l 167 1317 l 167 1396 m 242 1929 q 256 1893 250 1914 q 264 1853 261 1872 q 269 1808 268 1831 l 269 1704 l 269 1622 l 167 1622 l 167 1717 l 167 1719 l 167 1800 q 165 1818 167 1803 q 161 1851 164 1833 q 152 1882 158 1868 q 135 1896 146 1896 q 124 1890 129 1896 q 113 1865 118 1883 q 106 1812 108 1846 q 103 1722 103 1778 l 103 1721 l 103 1717 l 103 1711 l 103 1622 l 0 1622 l 0 1711 l 0 1717 l 0 1722 q 8 1849 0 1797 q 33 1932 17 1900 q 135 1994 67 1994 q 197 1977 171 1994 q 242 1929 224 1960 m 269 276 l 269 172 q 264 128 268 150 q 256 88 261 108 q 242 51 250 67 q 197 2 224 19 q 135 -15 171 -15 q 33 47 68 -15 q 0 256 0 111 l 0 258 l 0 268 l 0 369 l 103 369 l 103 268 l 103 258 q 106 169 103 203 q 113 116 108 135 q 124 91 118 97 q 135 85 129 85 q 152 99 146 85 q 161 130 158 113 q 165 162 164 147 q 167 179 167 176 l 167 256 l 167 369 l 269 369 l 269 276 m 143 2139 l 111 2078 l -4 2078 l 76 2235 l 208 2235 l 292 2079 l 290 2078 l 175 2078 l 143 2139 l 143 2139 z "},"":{"ha":325,"x_min":0,"x_max":283,"o":"m 135 1592 q 197 1574 171 1592 q 242 1525 224 1557 q 256 1489 250 1510 q 264 1449 261 1468 q 269 1404 268 1426 l 269 1300 l 269 1081 l 269 689 l 269 585 q 264 540 268 563 q 256 500 261 521 q 242 464 250 479 q 197 415 224 432 q 135 397 171 397 q 33 461 68 397 q 8 544 17 493 q 0 669 0 594 l 0 671 l 0 682 l 0 1051 l 0 1307 l 0 1313 l 0 1318 q 8 1444 0 1393 q 33 1528 17 1496 q 135 1592 68 1592 m 167 1396 q 165 1414 167 1399 q 161 1447 164 1429 q 152 1478 158 1464 q 135 1492 146 1492 q 124 1485 129 1492 q 113 1460 118 1479 q 106 1408 108 1442 q 103 1318 103 1374 l 103 1317 l 103 1313 l 103 1307 l 103 1081 l 103 682 l 103 671 q 106 581 103 615 q 113 528 108 547 q 124 503 118 510 q 135 497 129 497 q 152 511 146 497 q 161 542 158 525 q 165 574 164 560 q 167 592 167 589 l 167 669 l 167 1051 l 167 1313 l 167 1317 l 167 1396 m 242 1929 q 256 1893 250 1914 q 264 1853 261 1872 q 269 1808 268 1831 l 269 1704 l 269 1622 l 167 1622 l 167 1717 l 167 1719 l 167 1800 q 165 1818 167 1803 q 161 1851 164 1833 q 152 1882 158 1868 q 135 1896 146 1896 q 124 1890 129 1896 q 113 1865 118 1883 q 106 1812 108 1846 q 103 1722 103 1778 l 103 1721 l 103 1717 l 103 1711 l 103 1622 l 0 1622 l 0 1711 l 0 1717 l 0 1722 q 8 1849 0 1797 q 33 1932 17 1900 q 135 1994 67 1994 q 197 1977 171 1994 q 242 1929 224 1960 m 269 276 l 269 172 q 264 128 268 150 q 256 88 261 108 q 242 51 250 67 q 197 2 224 19 q 135 -15 171 -15 q 33 47 68 -15 q 0 256 0 111 l 0 258 l 0 268 l 0 369 l 103 369 l 103 268 l 103 258 q 106 169 103 203 q 113 116 108 135 q 124 91 118 97 q 135 85 129 85 q 152 99 146 85 q 161 130 158 113 q 165 162 164 147 q 167 179 167 176 l 167 256 l 167 369 l 269 369 l 269 276 m 283 2042 q 263 2036 276 2039 q 231 2032 247 2032 q 175 2042 206 2032 q 108 2081 144 2053 q 28 2115 65 2115 l 28 2218 q 174 2161 100 2218 q 240 2136 211 2129 q 264 2147 253 2139 q 283 2164 275 2154 l 283 2042 z "},"":{"ha":311,"x_min":0,"x_max":269,"o":"m 135 1592 q 197 1574 171 1592 q 242 1525 224 1557 q 256 1489 250 1510 q 264 1449 261 1468 q 269 1404 268 1426 l 269 1300 l 269 1081 l 269 689 l 269 585 q 264 540 268 563 q 256 500 261 521 q 242 464 250 479 q 197 415 224 432 q 135 397 171 397 q 33 461 68 397 q 8 544 17 493 q 0 669 0 594 l 0 671 l 0 682 l 0 1051 l 0 1307 l 0 1313 l 0 1318 q 8 1444 0 1393 q 33 1528 17 1496 q 135 1592 68 1592 m 167 1396 q 165 1414 167 1399 q 161 1447 164 1429 q 152 1478 158 1464 q 135 1492 146 1492 q 124 1485 129 1492 q 113 1460 118 1479 q 106 1408 108 1442 q 103 1318 103 1374 l 103 1317 l 103 1313 l 103 1307 l 103 1081 l 103 682 l 103 671 q 106 581 103 615 q 113 528 108 547 q 124 503 118 510 q 135 497 129 497 q 152 511 146 497 q 161 542 158 525 q 165 574 164 560 q 167 592 167 589 l 167 669 l 167 1051 l 167 1313 l 167 1317 l 167 1396 m 242 1929 q 256 1893 250 1914 q 264 1853 261 1872 q 269 1808 268 1831 l 269 1704 l 269 1622 l 167 1622 l 167 1717 l 167 1719 l 167 1800 q 165 1818 167 1803 q 161 1851 164 1833 q 152 1882 158 1868 q 135 1896 146 1896 q 124 1890 129 1896 q 113 1865 118 1883 q 106 1812 108 1846 q 103 1722 103 1778 l 103 1721 l 103 1717 l 103 1711 l 103 1622 l 0 1622 l 0 1711 l 0 1717 l 0 1722 q 8 1849 0 1797 q 33 1932 17 1900 q 135 1994 67 1994 q 197 1977 171 1994 q 242 1929 224 1960 m 269 276 l 269 172 q 264 128 268 150 q 256 88 261 108 q 242 51 250 67 q 197 2 224 19 q 135 -15 171 -15 q 33 47 68 -15 q 0 256 0 111 l 0 258 l 0 268 l 0 369 l 103 369 l 103 268 l 103 258 q 106 169 103 203 q 113 116 108 135 q 124 91 118 97 q 135 85 129 85 q 152 99 146 85 q 161 130 158 113 q 165 162 164 147 q 167 179 167 176 l 167 256 l 167 369 l 269 369 l 269 276 m 31 2081 l 31 2197 l 133 2197 l 133 2081 l 31 2081 m 167 2197 l 269 2197 l 269 2081 l 167 2081 l 167 2197 z "},"":{"ha":311,"x_min":0,"x_max":269,"o":"m 167 1579 l 269 1579 l 269 675 q 261 547 269 599 q 236 461 253 494 q 135 397 201 397 q 28 465 60 397 q 12 514 17 489 q 4 563 7 539 q 2 574 3 569 q 0 585 1 579 l 0 588 l 0 1579 l 103 1579 l 103 596 q 104 586 104 590 q 106 576 104 582 q 111 539 108 557 q 121 508 114 521 q 135 499 125 499 l 138 499 q 143 506 139 499 q 153 531 147 513 q 163 584 158 550 q 167 675 167 618 l 167 1579 m 269 1983 l 269 1622 l 167 1622 l 167 1983 l 269 1983 m 103 1622 l 0 1622 l 0 1983 l 103 1983 l 103 1622 m 167 369 l 269 369 l 269 263 q 261 134 269 186 q 236 49 253 82 q 135 -15 201 -15 q 28 53 60 -15 q 12 101 17 75 q 4 150 7 126 q 2 161 3 156 q 0 171 1 167 l 0 175 l 0 369 l 103 369 l 103 183 q 104 173 104 178 q 106 164 104 168 q 111 126 108 144 q 121 96 114 107 q 135 86 125 86 l 138 86 q 143 92 139 86 q 153 117 147 99 q 163 171 158 136 q 167 263 167 206 l 167 369 m 60 2325 l 161 2343 l 182 2068 l 135 2057 l 60 2325 l 60 2325 z "},"":{"ha":311,"x_min":0,"x_max":269,"o":"m 167 1579 l 269 1579 l 269 675 q 261 547 269 599 q 236 461 253 494 q 135 397 201 397 q 28 465 60 397 q 12 514 17 489 q 4 563 7 539 q 2 574 3 569 q 0 585 1 579 l 0 588 l 0 1579 l 103 1579 l 103 596 q 104 586 104 590 q 106 576 104 582 q 111 539 108 557 q 121 508 114 521 q 135 499 125 499 l 138 499 q 143 506 139 499 q 153 531 147 513 q 163 584 158 550 q 167 675 167 618 l 167 1579 m 269 1983 l 269 1622 l 167 1622 l 167 1983 l 269 1983 m 103 1622 l 0 1622 l 0 1983 l 103 1983 l 103 1622 m 167 369 l 269 369 l 269 263 q 261 134 269 186 q 236 49 253 82 q 135 -15 201 -15 q 28 53 60 -15 q 12 101 17 75 q 4 150 7 126 q 2 161 3 156 q 0 171 1 167 l 0 175 l 0 369 l 103 369 l 103 183 q 104 173 104 178 q 106 164 104 168 q 111 126 108 144 q 121 96 114 107 q 135 86 125 86 l 138 86 q 143 92 139 86 q 153 117 147 99 q 163 171 158 136 q 167 263 167 206 l 167 369 m 136 2072 l 89 2082 l 89 2301 l 211 2283 l 136 2072 l 136 2072 z "},"":{"ha":339,"x_min":0,"x_max":297,"o":"m 167 1579 l 269 1579 l 269 675 q 261 547 269 599 q 236 461 253 494 q 135 397 201 397 q 28 465 60 397 q 12 514 17 489 q 4 563 7 539 q 2 574 3 569 q 0 585 1 579 l 0 588 l 0 1579 l 103 1579 l 103 596 q 104 586 104 590 q 106 576 104 582 q 111 539 108 557 q 121 508 114 521 q 135 499 125 499 l 138 499 q 143 506 139 499 q 153 531 147 513 q 163 584 158 550 q 167 675 167 618 l 167 1579 m 269 1983 l 269 1622 l 167 1622 l 167 1983 l 269 1983 m 103 1622 l 0 1622 l 0 1983 l 103 1983 l 103 1622 m 167 369 l 269 369 l 269 263 q 261 134 269 186 q 236 49 253 82 q 135 -15 201 -15 q 28 53 60 -15 q 12 101 17 75 q 4 150 7 126 q 2 161 3 156 q 0 171 1 167 l 0 175 l 0 369 l 103 369 l 103 183 q 104 173 104 178 q 106 164 104 168 q 111 126 108 144 q 121 96 114 107 q 135 86 125 86 l 138 86 q 143 92 139 86 q 153 117 147 99 q 163 171 158 136 q 167 263 167 206 l 167 369 m 149 2139 l 117 2078 l 1 2078 l 82 2235 l 214 2235 l 297 2079 l 296 2078 l 181 2078 l 149 2139 l 149 2139 z "},"":{"ha":311,"x_min":0,"x_max":269,"o":"m 167 1579 l 269 1579 l 269 675 q 261 547 269 599 q 236 461 253 494 q 135 397 201 397 q 28 465 60 397 q 12 514 17 489 q 4 563 7 539 q 2 574 3 569 q 0 585 1 579 l 0 588 l 0 1579 l 103 1579 l 103 596 q 104 586 104 590 q 106 576 104 582 q 111 539 108 557 q 121 508 114 521 q 135 499 125 499 l 138 499 q 143 506 139 499 q 153 531 147 513 q 163 584 158 550 q 167 675 167 618 l 167 1579 m 269 1983 l 269 1622 l 167 1622 l 167 1983 l 269 1983 m 103 1622 l 0 1622 l 0 1983 l 103 1983 l 103 1622 m 167 369 l 269 369 l 269 263 q 261 134 269 186 q 236 49 253 82 q 135 -15 201 -15 q 28 53 60 -15 q 12 101 17 75 q 4 150 7 126 q 2 161 3 156 q 0 171 1 167 l 0 175 l 0 369 l 103 369 l 103 183 q 104 173 104 178 q 106 164 104 168 q 111 126 108 144 q 121 96 114 107 q 135 86 125 86 l 138 86 q 143 92 139 86 q 153 117 147 99 q 163 171 158 136 q 167 263 167 206 l 167 369 m 31 2075 l 31 2192 l 133 2192 l 133 2075 l 31 2075 m 167 2192 l 269 2192 l 269 2075 l 167 2075 l 167 2192 z "},"":{"ha":329,"x_min":0,"x_max":288,"o":"m 143 1203 l 183 1579 l 288 1579 l 193 992 l 193 414 l 90 414 l 90 1010 l 0 1579 l 104 1579 l 143 1203 m 288 1983 l 229 1622 l 146 1622 l 183 1983 l 288 1983 m 142 1622 l 57 1622 l 0 1983 l 104 1983 l 142 1622 m 90 0 l 90 369 l 193 369 l 193 0 l 90 0 m 150 2056 l 103 2065 l 103 2285 l 225 2267 l 150 2056 l 150 2056 z "},"":{"ha":329,"x_min":0,"x_max":288,"o":"m 143 1203 l 183 1579 l 288 1579 l 193 992 l 193 414 l 90 414 l 90 1010 l 0 1579 l 104 1579 l 143 1203 m 288 1983 l 229 1622 l 146 1622 l 183 1983 l 288 1983 m 142 1622 l 57 1622 l 0 1983 l 104 1983 l 142 1622 m 90 0 l 90 369 l 193 369 l 193 0 l 90 0 m 39 2082 l 39 2199 l 142 2199 l 142 2082 l 39 2082 m 175 2199 l 278 2199 l 278 2082 l 175 2082 l 175 2199 z "},"":{"ha":329,"x_min":0,"x_max":288,"o":"m 143 1203 l 183 1579 l 288 1579 l 193 992 l 193 414 l 90 414 l 90 1010 l 0 1579 l 104 1579 l 143 1203 m 288 1983 l 229 1622 l 146 1622 l 183 1983 l 288 1983 m 142 1622 l 57 1622 l 0 1983 l 104 1983 l 142 1622 m 90 0 l 90 369 l 193 369 l 193 0 l 90 0 m 150 2051 l 103 2061 l 103 2281 l 225 2263 l 150 2051 l 150 2051 z "},"":{"ha":311,"x_min":0,"x_max":269,"o":"m 167 1579 l 269 1579 l 269 675 q 261 547 269 599 q 236 461 253 494 q 135 397 201 397 q 28 465 60 397 q 12 514 17 489 q 4 563 7 539 q 2 574 3 569 q 0 585 1 579 l 0 588 l 0 1579 l 103 1579 l 103 596 q 104 586 104 590 q 106 576 104 582 q 111 539 108 557 q 121 508 114 521 q 135 499 125 499 l 138 499 q 143 506 139 499 q 153 531 147 513 q 163 584 158 550 q 167 675 167 618 l 167 1579 m 269 1983 l 269 1622 l 167 1622 l 167 1983 l 269 1983 m 103 1622 l 0 1622 l 0 1983 l 103 1983 l 103 1622 m 167 369 l 269 369 l 269 263 q 261 134 269 186 q 236 49 253 82 q 135 -15 201 -15 q 28 53 60 -15 q 12 101 17 75 q 4 150 7 126 q 2 161 3 156 q 0 171 1 167 l 0 175 l 0 369 l 103 369 l 103 183 q 104 173 104 178 q 106 164 104 168 q 111 126 108 144 q 121 96 114 107 q 135 86 125 86 l 138 86 q 143 92 139 86 q 153 117 147 99 q 163 171 158 136 q 167 263 167 206 l 167 369 m 31 2088 l 31 2204 l 133 2204 l 133 2088 l 31 2088 m 167 2204 l 269 2204 l 269 2088 l 167 2088 l 167 2204 z "},"":{"ha":344,"x_min":0,"x_max":303,"o":"m 167 1579 l 269 1579 l 269 675 q 261 547 269 599 q 236 461 253 494 q 135 397 201 397 q 28 465 60 397 q 12 514 17 489 q 4 563 7 539 q 2 574 3 569 q 0 585 1 579 l 0 588 l 0 1579 l 103 1579 l 103 596 q 104 586 104 590 q 106 576 104 582 q 111 539 108 557 q 121 508 114 521 q 135 499 125 499 l 138 499 q 143 506 139 499 q 153 531 147 513 q 163 584 158 550 q 167 675 167 618 l 167 1579 m 269 1983 l 269 1622 l 167 1622 l 167 1983 l 269 1983 m 103 1622 l 0 1622 l 0 1983 l 103 1983 l 103 1622 m 167 369 l 269 369 l 269 263 q 261 134 269 186 q 236 49 253 82 q 135 -15 201 -15 q 28 53 60 -15 q 12 101 17 75 q 4 150 7 126 q 2 161 3 156 q 0 171 1 167 l 0 175 l 0 369 l 103 369 l 103 183 q 104 173 104 178 q 106 164 104 168 q 111 126 108 144 q 121 96 114 107 q 135 86 125 86 l 138 86 q 143 92 139 86 q 153 117 147 99 q 163 171 158 136 q 167 263 167 206 l 167 369 m 154 2149 l 122 2088 l 7 2088 l 88 2244 l 219 2244 l 303 2089 l 301 2088 l 186 2088 l 154 2149 l 154 2149 z "},"":{"ha":311,"x_min":0,"x_max":269,"o":"m 167 1579 l 269 1579 l 269 675 q 261 547 269 599 q 236 461 253 494 q 135 397 201 397 q 28 465 60 397 q 12 514 17 489 q 4 563 7 539 q 2 574 3 569 q 0 585 1 579 l 0 588 l 0 1579 l 103 1579 l 103 596 q 104 586 104 590 q 106 576 104 582 q 111 539 108 557 q 121 508 114 521 q 135 499 125 499 l 138 499 q 143 506 139 499 q 153 531 147 513 q 163 584 158 550 q 167 675 167 618 l 167 1579 m 269 1983 l 269 1622 l 167 1622 l 167 1983 l 269 1983 m 103 1622 l 0 1622 l 0 1983 l 103 1983 l 103 1622 m 167 369 l 269 369 l 269 263 q 261 134 269 186 q 236 49 253 82 q 135 -15 201 -15 q 28 53 60 -15 q 12 101 17 75 q 4 150 7 126 q 2 161 3 156 q 0 171 1 167 l 0 175 l 0 369 l 103 369 l 103 183 q 104 173 104 178 q 106 164 104 168 q 111 126 108 144 q 121 96 114 107 q 135 86 125 86 l 138 86 q 143 92 139 86 q 153 117 147 99 q 163 171 158 136 q 167 263 167 206 l 167 369 m 142 2051 l 94 2061 l 94 2281 l 217 2263 l 142 2051 l 142 2051 z "},"":{"ha":311,"x_min":0,"x_max":269,"o":"m 167 1579 l 269 1579 l 269 675 q 261 547 269 599 q 236 461 253 494 q 135 397 201 397 q 28 465 60 397 q 12 514 17 489 q 4 563 7 539 q 2 574 3 569 q 0 585 1 579 l 0 588 l 0 1579 l 103 1579 l 103 596 q 104 586 104 590 q 106 576 104 582 q 111 539 108 557 q 121 508 114 521 q 135 499 125 499 l 138 499 q 143 506 139 499 q 153 531 147 513 q 163 584 158 550 q 167 675 167 618 l 167 1579 m 269 1983 l 269 1622 l 167 1622 l 167 1983 l 269 1983 m 103 1622 l 0 1622 l 0 1983 l 103 1983 l 103 1622 m 167 369 l 269 369 l 269 263 q 261 134 269 186 q 236 49 253 82 q 135 -15 201 -15 q 28 53 60 -15 q 12 101 17 75 q 4 150 7 126 q 2 161 3 156 q 0 171 1 167 l 0 175 l 0 369 l 103 369 l 103 183 q 104 173 104 178 q 106 164 104 168 q 111 126 108 144 q 121 96 114 107 q 135 86 125 86 l 138 86 q 143 92 139 86 q 153 117 147 99 q 163 171 158 136 q 167 263 167 206 l 167 369 m 65 2322 l 167 2340 l 188 2065 l 140 2054 l 65 2322 l 65 2322 z "},"":{"ha":311,"x_min":0,"x_max":269,"o":"m 135 1592 q 197 1574 171 1592 q 242 1525 224 1557 q 256 1489 250 1510 q 264 1449 261 1468 q 269 1404 268 1426 l 269 1300 l 269 1081 l 269 689 l 269 585 q 264 540 268 563 q 256 500 261 521 q 242 464 250 479 q 197 415 224 432 q 135 397 171 397 q 33 461 68 397 q 8 544 17 493 q 0 669 0 594 l 0 671 l 0 682 l 0 1051 l 0 1307 l 0 1313 l 0 1318 q 8 1444 0 1393 q 33 1528 17 1496 q 135 1592 68 1592 m 167 1396 q 165 1414 167 1399 q 161 1447 164 1429 q 152 1478 158 1464 q 135 1492 146 1492 q 124 1485 129 1492 q 113 1460 118 1479 q 106 1408 108 1442 q 103 1318 103 1374 l 103 1317 l 103 1313 l 103 1307 l 103 1081 l 103 682 l 103 671 q 106 581 103 615 q 113 528 108 547 q 124 503 118 510 q 135 497 129 497 q 152 511 146 497 q 161 542 158 525 q 165 574 164 560 q 167 592 167 589 l 167 669 l 167 1051 l 167 1313 l 167 1317 l 167 1396 m 242 1929 q 256 1893 250 1914 q 264 1853 261 1872 q 269 1808 268 1831 l 269 1704 l 269 1622 l 167 1622 l 167 1717 l 167 1719 l 167 1800 q 165 1818 167 1803 q 161 1851 164 1833 q 152 1882 158 1868 q 135 1896 146 1896 q 124 1890 129 1896 q 113 1865 118 1883 q 106 1812 108 1846 q 103 1722 103 1778 l 103 1721 l 103 1717 l 103 1711 l 103 1622 l 0 1622 l 0 1711 l 0 1717 l 0 1722 q 8 1849 0 1797 q 33 1932 17 1900 q 135 1994 67 1994 q 197 1977 171 1994 q 242 1929 224 1960 m 269 276 l 269 172 q 264 128 268 150 q 256 88 261 108 q 242 51 250 67 q 197 2 224 19 q 135 -15 171 -15 q 33 47 68 -15 q 0 256 0 111 l 0 258 l 0 268 l 0 369 l 103 369 l 103 268 l 103 258 q 106 169 103 203 q 113 116 108 135 q 124 91 118 97 q 135 85 129 85 q 152 99 146 85 q 161 130 158 113 q 165 162 164 147 q 167 179 167 176 l 167 256 l 167 369 l 269 369 l 269 276 m 31 2065 l 31 2182 l 133 2182 l 133 2065 l 31 2065 m 167 2182 l 269 2182 l 269 2065 l 167 2065 l 167 2182 z "},"":{"ha":332,"x_min":0,"x_max":290,"o":"m 135 1592 q 197 1574 171 1592 q 242 1525 224 1557 q 256 1489 250 1510 q 264 1449 261 1468 q 269 1404 268 1426 l 269 1300 l 269 1081 l 269 689 l 269 585 q 264 540 268 563 q 256 500 261 521 q 242 464 250 479 q 197 415 224 432 q 135 397 171 397 q 33 461 68 397 q 8 544 17 493 q 0 669 0 594 l 0 671 l 0 682 l 0 1051 l 0 1307 l 0 1313 l 0 1318 q 8 1444 0 1393 q 33 1528 17 1496 q 135 1592 68 1592 m 167 1396 q 165 1414 167 1399 q 161 1447 164 1429 q 152 1478 158 1464 q 135 1492 146 1492 q 124 1485 129 1492 q 113 1460 118 1479 q 106 1408 108 1442 q 103 1318 103 1374 l 103 1317 l 103 1313 l 103 1307 l 103 1081 l 103 682 l 103 671 q 106 581 103 615 q 113 528 108 547 q 124 503 118 510 q 135 497 129 497 q 152 511 146 497 q 161 542 158 525 q 165 574 164 560 q 167 592 167 589 l 167 669 l 167 1051 l 167 1313 l 167 1317 l 167 1396 m 242 1929 q 256 1893 250 1914 q 264 1853 261 1872 q 269 1808 268 1831 l 269 1704 l 269 1622 l 167 1622 l 167 1717 l 167 1719 l 167 1800 q 165 1818 167 1803 q 161 1851 164 1833 q 152 1882 158 1868 q 135 1896 146 1896 q 124 1890 129 1896 q 113 1865 118 1883 q 106 1812 108 1846 q 103 1722 103 1778 l 103 1721 l 103 1717 l 103 1711 l 103 1622 l 0 1622 l 0 1711 l 0 1717 l 0 1722 q 8 1849 0 1797 q 33 1932 17 1900 q 135 1994 67 1994 q 197 1977 171 1994 q 242 1929 224 1960 m 269 276 l 269 172 q 264 128 268 150 q 256 88 261 108 q 242 51 250 67 q 197 2 224 19 q 135 -15 171 -15 q 33 47 68 -15 q 0 256 0 111 l 0 258 l 0 268 l 0 369 l 103 369 l 103 268 l 103 258 q 106 169 103 203 q 113 116 108 135 q 124 91 118 97 q 135 85 129 85 q 152 99 146 85 q 161 130 158 113 q 165 162 164 147 q 167 179 167 176 l 167 256 l 167 369 l 269 369 l 269 276 m 290 2049 q 269 2043 283 2046 q 238 2039 254 2039 q 182 2049 213 2039 q 115 2088 151 2060 q 35 2122 72 2122 l 35 2225 q 181 2168 107 2225 q 247 2143 218 2136 q 271 2153 260 2146 q 290 2171 282 2161 l 290 2049 z "},"":{"ha":311,"x_min":0,"x_max":297,"o":"m 135 1592 q 197 1574 171 1592 q 242 1525 224 1557 q 256 1489 250 1510 q 264 1449 261 1468 q 269 1404 268 1426 l 269 1300 l 269 1081 l 269 689 l 269 585 q 264 540 268 563 q 256 500 261 521 q 242 464 250 479 q 197 415 224 432 q 135 397 171 397 q 33 461 68 397 q 8 544 17 493 q 0 669 0 594 l 0 671 l 0 682 l 0 1051 l 0 1307 l 0 1313 l 0 1318 q 8 1444 0 1393 q 33 1528 17 1496 q 135 1592 68 1592 m 167 1396 q 165 1414 167 1399 q 161 1447 164 1429 q 152 1478 158 1464 q 135 1492 146 1492 q 124 1485 129 1492 q 113 1460 118 1479 q 106 1408 108 1442 q 103 1318 103 1374 l 103 1317 l 103 1313 l 103 1307 l 103 1081 l 103 682 l 103 671 q 106 581 103 615 q 113 528 108 547 q 124 503 118 510 q 135 497 129 497 q 152 511 146 497 q 161 542 158 525 q 165 574 164 560 q 167 592 167 589 l 167 669 l 167 1051 l 167 1313 l 167 1317 l 167 1396 m 242 1929 q 256 1893 250 1914 q 264 1853 261 1872 q 269 1808 268 1831 l 269 1704 l 269 1622 l 167 1622 l 167 1717 l 167 1719 l 167 1800 q 165 1818 167 1803 q 161 1851 164 1833 q 152 1882 158 1868 q 135 1896 146 1896 q 124 1890 129 1896 q 113 1865 118 1883 q 106 1812 108 1846 q 103 1722 103 1778 l 103 1721 l 103 1717 l 103 1711 l 103 1622 l 0 1622 l 0 1711 l 0 1717 l 0 1722 q 8 1849 0 1797 q 33 1932 17 1900 q 135 1994 67 1994 q 197 1977 171 1994 q 242 1929 224 1960 m 269 276 l 269 172 q 264 128 268 150 q 256 88 261 108 q 242 51 250 67 q 197 2 224 19 q 135 -15 171 -15 q 33 47 68 -15 q 0 256 0 111 l 0 258 l 0 268 l 0 369 l 103 369 l 103 268 l 103 258 q 106 169 103 203 q 113 116 108 135 q 124 91 118 97 q 135 85 129 85 q 152 99 146 85 q 161 130 158 113 q 165 162 164 147 q 167 179 167 176 l 167 256 l 167 369 l 269 369 l 269 276 m 149 2142 l 117 2081 l 1 2081 l 82 2238 l 214 2238 l 297 2082 l 296 2081 l 181 2081 l 149 2142 l 149 2142 z "},"":{"ha":311,"x_min":0,"x_max":269,"o":"m 135 1592 q 197 1574 171 1592 q 242 1525 224 1557 q 256 1489 250 1510 q 264 1449 261 1468 q 269 1404 268 1426 l 269 1300 l 269 1081 l 269 689 l 269 585 q 264 540 268 563 q 256 500 261 521 q 242 464 250 479 q 197 415 224 432 q 135 397 171 397 q 33 461 68 397 q 8 544 17 493 q 0 669 0 594 l 0 671 l 0 682 l 0 1051 l 0 1307 l 0 1313 l 0 1318 q 8 1444 0 1393 q 33 1528 17 1496 q 135 1592 68 1592 m 167 1396 q 165 1414 167 1399 q 161 1447 164 1429 q 152 1478 158 1464 q 135 1492 146 1492 q 124 1485 129 1492 q 113 1460 118 1479 q 106 1408 108 1442 q 103 1318 103 1374 l 103 1317 l 103 1313 l 103 1307 l 103 1081 l 103 682 l 103 671 q 106 581 103 615 q 113 528 108 547 q 124 503 118 510 q 135 497 129 497 q 152 511 146 497 q 161 542 158 525 q 165 574 164 560 q 167 592 167 589 l 167 669 l 167 1051 l 167 1313 l 167 1317 l 167 1396 m 242 1929 q 256 1893 250 1914 q 264 1853 261 1872 q 269 1808 268 1831 l 269 1704 l 269 1622 l 167 1622 l 167 1717 l 167 1719 l 167 1800 q 165 1818 167 1803 q 161 1851 164 1833 q 152 1882 158 1868 q 135 1896 146 1896 q 124 1890 129 1896 q 113 1865 118 1883 q 106 1812 108 1846 q 103 1722 103 1778 l 103 1721 l 103 1717 l 103 1711 l 103 1622 l 0 1622 l 0 1711 l 0 1717 l 0 1722 q 8 1849 0 1797 q 33 1932 17 1900 q 135 1994 67 1994 q 197 1977 171 1994 q 242 1929 224 1960 m 269 276 l 269 172 q 264 128 268 150 q 256 88 261 108 q 242 51 250 67 q 197 2 224 19 q 135 -15 171 -15 q 33 47 68 -15 q 0 256 0 111 l 0 258 l 0 268 l 0 369 l 103 369 l 103 268 l 103 258 q 106 169 103 203 q 113 116 108 135 q 124 91 118 97 q 135 85 129 85 q 152 99 146 85 q 161 130 158 113 q 165 162 164 147 q 167 179 167 176 l 167 256 l 167 369 l 269 369 l 269 276 m 142 2051 l 94 2061 l 94 2281 l 217 2263 l 142 2051 l 142 2051 z "},"":{"ha":311,"x_min":0,"x_max":269,"o":"m 135 1592 q 197 1574 171 1592 q 242 1525 224 1557 q 256 1489 250 1510 q 264 1449 261 1468 q 269 1404 268 1426 l 269 1300 l 269 1081 l 269 689 l 269 585 q 264 540 268 563 q 256 500 261 521 q 242 464 250 479 q 197 415 224 432 q 135 397 171 397 q 33 461 68 397 q 8 544 17 493 q 0 669 0 594 l 0 671 l 0 682 l 0 1051 l 0 1307 l 0 1313 l 0 1318 q 8 1444 0 1393 q 33 1528 17 1496 q 135 1592 68 1592 m 167 1396 q 165 1414 167 1399 q 161 1447 164 1429 q 152 1478 158 1464 q 135 1492 146 1492 q 124 1485 129 1492 q 113 1460 118 1479 q 106 1408 108 1442 q 103 1318 103 1374 l 103 1317 l 103 1313 l 103 1307 l 103 1081 l 103 682 l 103 671 q 106 581 103 615 q 113 528 108 547 q 124 503 118 510 q 135 497 129 497 q 152 511 146 497 q 161 542 158 525 q 165 574 164 560 q 167 592 167 589 l 167 669 l 167 1051 l 167 1313 l 167 1317 l 167 1396 m 242 1929 q 256 1893 250 1914 q 264 1853 261 1872 q 269 1808 268 1831 l 269 1704 l 269 1622 l 167 1622 l 167 1717 l 167 1719 l 167 1800 q 165 1818 167 1803 q 161 1851 164 1833 q 152 1882 158 1868 q 135 1896 146 1896 q 124 1890 129 1896 q 113 1865 118 1883 q 106 1812 108 1846 q 103 1722 103 1778 l 103 1721 l 103 1717 l 103 1711 l 103 1622 l 0 1622 l 0 1711 l 0 1717 l 0 1722 q 8 1849 0 1797 q 33 1932 17 1900 q 135 1994 67 1994 q 197 1977 171 1994 q 242 1929 224 1960 m 269 276 l 269 172 q 264 128 268 150 q 256 88 261 108 q 242 51 250 67 q 197 2 224 19 q 135 -15 171 -15 q 33 47 68 -15 q 0 256 0 111 l 0 258 l 0 268 l 0 369 l 103 369 l 103 268 l 103 258 q 106 169 103 203 q 113 116 108 135 q 124 91 118 97 q 135 85 129 85 q 152 99 146 85 q 161 130 158 113 q 165 162 164 147 q 167 179 167 176 l 167 256 l 167 369 l 269 369 l 269 276 m 83 2328 l 185 2346 l 206 2071 l 158 2060 l 83 2328 l 83 2328 z "},"":{"ha":371,"x_min":0,"x_max":329,"o":"m 226 951 l 226 1579 l 329 1579 l 329 414 l 278 414 l 226 414 l 197 414 l 104 1322 l 104 414 l 1 414 l 0 1579 l 167 1579 l 226 951 m 104 1622 l 0 1622 l 0 1983 l 167 1983 l 201 1622 l 114 1622 l 104 1726 l 104 1622 m 226 1983 l 329 1983 l 329 1622 l 226 1622 l 226 1983 m 1 369 l 104 369 l 104 1 l 1 1 l 1 369 m 197 1 l 160 369 l 329 369 l 329 1 l 278 1 l 226 1 l 197 1 m 313 2038 q 292 2032 306 2035 q 260 2028 276 2028 q 204 2038 235 2028 q 138 2076 174 2049 q 57 2111 94 2111 l 57 2214 q 203 2157 129 2214 q 269 2132 240 2125 q 293 2142 282 2135 q 313 2160 304 2150 l 313 2038 z "},"":{"ha":228,"x_min":-53,"x_max":186,"o":"m 0 414 l 0 1579 l 103 1579 l 103 414 l 0 414 m 0 1983 l 103 1983 l 103 1622 l 0 1622 l 0 1983 m 0 1 l 0 369 l 103 369 l 103 1 l 0 1 m -53 2082 l -53 2199 l 50 2199 l 50 2082 l -53 2082 m 83 2199 l 186 2199 l 186 2082 l 83 2082 l 83 2199 z "},"":{"ha":268,"x_min":-69,"x_max":226,"o":"m 0 414 l 0 1579 l 103 1579 l 103 414 l 0 414 m 0 1983 l 103 1983 l 103 1622 l 0 1622 l 0 1983 m 0 1 l 0 369 l 103 369 l 103 1 l 0 1 m 78 2153 l 46 2092 l -69 2092 l 11 2249 l 143 2249 l 226 2093 l 225 2092 l 110 2092 l 78 2153 l 78 2153 z "},"":{"ha":181,"x_min":0,"x_max":139,"o":"m 0 414 l 0 1579 l 103 1579 l 103 414 l 0 414 m 0 1983 l 103 1983 l 103 1622 l 0 1622 l 0 1983 m 0 1 l 0 369 l 103 369 l 103 1 l 0 1 m 64 2057 l 17 2067 l 17 2286 l 139 2268 l 64 2057 l 64 2057 z "},"":{"ha":158,"x_min":-6,"x_max":117,"o":"m 0 414 l 0 1579 l 103 1579 l 103 414 l 0 414 m 0 1983 l 103 1983 l 103 1622 l 0 1622 l 0 1983 m 0 1 l 0 369 l 103 369 l 103 1 l 0 1 m -6 2350 l 96 2368 l 117 2093 l 69 2082 l -6 2350 l -6 2350 z "},"":{"ha":292,"x_min":0,"x_max":250,"o":"m 0 413 l 0 1579 l 224 1579 l 224 1476 l 103 1476 l 103 1051 l 185 1051 l 185 947 l 103 947 l 103 511 l 224 511 l 224 413 l 0 413 m 0 1983 l 224 1983 l 224 1881 l 103 1881 l 103 1622 l 0 1622 l 0 1983 m 103 369 l 103 99 l 224 99 l 224 0 l 0 0 l 0 369 l 103 369 m 11 2085 l 11 2201 l 114 2201 l 114 2085 l 11 2085 m 147 2201 l 250 2201 l 250 2085 l 147 2085 l 147 2201 z "},"":{"ha":322,"x_min":-15,"x_max":281,"o":"m 0 413 l 0 1579 l 224 1579 l 224 1476 l 103 1476 l 103 1051 l 185 1051 l 185 947 l 103 947 l 103 511 l 224 511 l 224 413 l 0 413 m 0 1983 l 224 1983 l 224 1881 l 103 1881 l 103 1622 l 0 1622 l 0 1983 m 103 369 l 103 99 l 224 99 l 224 0 l 0 0 l 0 369 l 103 369 m 132 2142 l 100 2081 l -15 2081 l 65 2238 l 197 2238 l 281 2082 l 279 2081 l 164 2081 l 132 2142 l 132 2142 z "},"":{"ha":265,"x_min":0,"x_max":224,"o":"m 0 413 l 0 1579 l 224 1579 l 224 1476 l 103 1476 l 103 1051 l 185 1051 l 185 947 l 103 947 l 103 511 l 224 511 l 224 413 l 0 413 m 0 1983 l 224 1983 l 224 1881 l 103 1881 l 103 1622 l 0 1622 l 0 1983 m 103 369 l 103 99 l 224 99 l 224 0 l 0 0 l 0 369 l 103 369 m 118 2051 l 71 2061 l 71 2281 l 193 2263 l 118 2051 l 118 2051 z "},"":{"ha":265,"x_min":0,"x_max":224,"o":"m 0 413 l 0 1579 l 224 1579 l 224 1476 l 103 1476 l 103 1051 l 185 1051 l 185 947 l 103 947 l 103 511 l 224 511 l 224 413 l 0 413 m 0 1983 l 224 1983 l 224 1881 l 103 1881 l 103 1622 l 0 1622 l 0 1983 m 103 369 l 103 99 l 224 99 l 224 0 l 0 0 l 0 369 l 103 369 m 53 2339 l 154 2357 l 175 2082 l 128 2071 l 53 2339 l 53 2339 z "},"":{"ha":311,"x_min":0,"x_max":283,"o":"m 135 1592 q 197 1574 171 1592 q 242 1525 224 1557 q 256 1489 250 1510 q 264 1449 261 1468 q 269 1404 268 1426 l 269 1300 l 167 1288 l 167 1397 q 165 1414 167 1399 q 161 1447 164 1429 q 152 1478 158 1464 q 135 1492 146 1492 q 124 1485 129 1492 q 113 1460 118 1479 q 106 1408 108 1442 q 103 1318 103 1374 l 103 1313 l 103 1307 l 103 1081 l 103 682 l 103 671 q 106 581 103 615 q 113 528 108 547 q 124 503 118 510 q 135 497 129 497 q 152 511 146 497 q 161 542 158 525 q 165 574 164 560 q 167 592 167 589 l 167 701 l 269 689 l 269 585 q 264 540 268 563 q 256 500 261 521 q 242 464 250 479 q 197 415 224 432 q 135 397 171 397 q 33 461 68 397 q 8 544 17 493 q 0 669 0 594 l 0 671 l 0 682 l 0 1053 l 0 1307 l 0 1313 l 0 1318 q 8 1444 0 1393 q 33 1529 17 1496 q 135 1592 68 1592 m 242 1929 q 256 1893 250 1914 q 264 1853 261 1872 q 269 1808 268 1831 l 269 1704 l 167 1692 l 167 1801 q 165 1818 167 1803 q 161 1851 164 1833 q 152 1882 158 1868 q 135 1896 146 1896 q 124 1890 129 1896 q 113 1865 118 1883 q 106 1812 108 1846 q 103 1722 103 1778 l 103 1721 l 103 1717 l 103 1711 l 103 1622 l 0 1622 l 0 1711 l 0 1717 l 0 1722 q 8 1849 0 1797 q 33 1932 17 1900 q 135 1996 68 1996 q 197 1978 171 1996 q 242 1929 224 1961 m 167 289 l 269 276 l 269 172 q 264 128 268 150 q 256 88 261 108 q 242 51 250 67 q 197 2 224 19 q 135 -15 171 -15 q 33 47 68 -15 q 0 256 0 111 l 0 258 l 0 269 l 0 369 l 103 369 l 103 269 l 103 258 q 106 169 103 203 q 113 116 108 135 q 124 91 118 97 q 135 85 129 85 q 152 99 146 85 q 161 130 158 113 q 165 162 164 147 q 167 179 167 176 l 167 289 m 263 -75 q 283 -143 283 -104 q 258 -219 283 -186 q 174 -260 225 -260 l 26 -260 l 26 -157 l 174 -157 l 176 -157 q 180 -151 179 -156 q 181 -142 181 -146 l 31 -142 l 103 40 l 199 1 l 182 -39 l 189 -39 q 231 -48 211 -39 q 263 -75 250 -57 z "},"":{"ha":517,"x_min":0,"x_max":475,"o":"m 125 694 l 103 414 l 0 414 l 90 1579 l 257 1579 l 347 414 l 244 414 l 222 694 l 125 694 m 174 1321 l 133 797 l 214 797 l 174 1321 m 174 1725 l 165 1622 l 63 1622 l 90 1983 l 257 1983 l 285 1622 l 182 1622 l 174 1725 m 29 369 l 318 369 l 347 1 l 244 1 l 222 281 l 125 281 l 103 1 l 0 1 l 29 369 m 251 413 l 251 1579 l 475 1579 l 475 1476 l 354 1476 l 354 1051 l 436 1051 l 436 947 l 354 947 l 354 511 l 475 511 l 475 413 l 251 413 m 251 1983 l 475 1983 l 475 1881 l 354 1881 l 354 1622 l 251 1622 l 251 1983 m 354 369 l 354 99 l 475 99 l 475 0 l 251 0 l 251 369 l 354 369 z "},"":{"ha":389,"x_min":0,"x_max":347,"o":"m 125 694 l 103 414 l 0 414 l 90 1579 l 257 1579 l 347 414 l 244 414 l 222 694 l 125 694 m 174 1321 l 133 797 l 214 797 l 174 1321 m 174 1725 l 165 1622 l 63 1622 l 90 1983 l 257 1983 l 285 1622 l 182 1622 l 174 1725 m 29 369 l 318 369 l 347 1 l 244 1 l 222 281 l 125 281 l 103 1 l 0 1 l 29 369 m 178 2072 q 97 2106 131 2072 q 64 2186 64 2139 q 97 2268 64 2235 q 178 2301 131 2301 q 258 2268 225 2301 q 292 2186 292 2235 q 258 2106 292 2139 q 178 2072 225 2072 m 178 2261 q 125 2240 147 2261 q 103 2186 103 2218 q 125 2134 103 2156 q 178 2113 147 2113 q 231 2134 210 2113 q 253 2186 253 2156 q 231 2240 253 2218 q 178 2261 210 2261 z "},"":{"ha":389,"x_min":0,"x_max":347,"o":"m 125 694 l 103 414 l 0 414 l 90 1579 l 257 1579 l 347 414 l 244 414 l 222 694 l 125 694 m 174 1321 l 133 797 l 214 797 l 174 1321 m 174 1725 l 165 1622 l 63 1622 l 90 1983 l 257 1983 l 285 1622 l 182 1622 l 174 1725 m 29 369 l 318 369 l 347 1 l 244 1 l 222 281 l 125 281 l 103 1 l 0 1 l 29 369 m 75 2076 l 75 2193 l 178 2193 l 178 2076 l 75 2076 m 211 2193 l 314 2193 l 314 2076 l 211 2076 l 211 2193 z "},"":{"ha":389,"x_min":0,"x_max":347,"o":"m 125 694 l 103 414 l 0 414 l 90 1579 l 257 1579 l 347 414 l 244 414 l 222 694 l 125 694 m 174 1321 l 133 797 l 214 797 l 174 1321 m 174 1725 l 165 1622 l 63 1622 l 90 1983 l 257 1983 l 285 1622 l 182 1622 l 174 1725 m 29 369 l 318 369 l 347 1 l 244 1 l 222 281 l 125 281 l 103 1 l 0 1 l 29 369 m 311 2043 q 290 2038 304 2040 q 258 2033 275 2033 q 203 2044 233 2033 q 136 2082 172 2054 q 56 2117 93 2117 l 56 2219 q 201 2163 128 2219 q 268 2138 239 2131 q 292 2148 281 2140 q 311 2165 303 2156 l 311 2043 z "},"":{"ha":389,"x_min":0,"x_max":347,"o":"m 125 694 l 103 414 l 0 414 l 90 1579 l 257 1579 l 347 414 l 244 414 l 222 694 l 125 694 m 174 1321 l 133 797 l 214 797 l 174 1321 m 174 1725 l 165 1622 l 63 1622 l 90 1983 l 257 1983 l 285 1622 l 182 1622 l 174 1725 m 29 369 l 318 369 l 347 1 l 244 1 l 222 281 l 125 281 l 103 1 l 0 1 l 29 369 m 175 2147 l 143 2086 l 28 2086 l 108 2243 l 240 2243 l 324 2088 l 322 2086 l 207 2086 l 175 2147 l 175 2147 z "},"":{"ha":389,"x_min":0,"x_max":347,"o":"m 125 694 l 103 414 l 0 414 l 90 1579 l 257 1579 l 347 414 l 244 414 l 222 694 l 125 694 m 174 1321 l 133 797 l 214 797 l 174 1321 m 174 1725 l 165 1622 l 63 1622 l 90 1983 l 257 1983 l 285 1622 l 182 1622 l 174 1725 m 29 369 l 318 369 l 347 1 l 244 1 l 222 281 l 125 281 l 103 1 l 0 1 l 29 369 m 181 2051 l 133 2061 l 133 2281 l 256 2263 l 181 2051 l 181 2051 z "},"":{"ha":389,"x_min":0,"x_max":347,"o":"m 125 694 l 103 414 l 0 414 l 90 1579 l 257 1579 l 347 414 l 244 414 l 222 694 l 125 694 m 174 1321 l 133 797 l 214 797 l 174 1321 m 174 1725 l 165 1622 l 63 1622 l 90 1983 l 257 1983 l 285 1622 l 182 1622 l 174 1725 m 29 369 l 318 369 l 347 1 l 244 1 l 222 281 l 125 281 l 103 1 l 0 1 l 29 369 m 94 2350 l 196 2368 l 217 2093 l 169 2082 l 94 2350 l 94 2350 z "},"":{"ha":361,"x_min":0,"x_max":335,"o":"m 86 1579 l 319 1579 l 122 511 l 258 511 l 258 414 l 0 414 l 197 1479 l 86 1479 l 86 1579 m 149 1622 l 197 1883 l 86 1883 l 86 1983 l 319 1983 l 253 1622 l 149 1622 m 172 369 l 122 99 l 258 99 l 258 0 l 0 0 l 68 369 l 172 369 m 188 2181 l 219 2242 l 335 2242 l 254 2085 l 121 2085 l 39 2242 l 40 2242 l 156 2242 l 188 2181 l 188 2181 z "},"":{"ha":361,"x_min":0,"x_max":331,"o":"m 86 1579 l 319 1579 l 122 511 l 258 511 l 258 414 l 0 414 l 197 1479 l 86 1479 l 86 1579 m 149 1622 l 197 1883 l 86 1883 l 86 1983 l 319 1983 l 253 1622 l 149 1622 m 172 369 l 122 99 l 258 99 l 258 0 l 0 0 l 68 369 l 172 369 m 183 2179 l 215 2240 l 331 2240 l 250 2083 l 117 2083 l 35 2240 l 36 2240 l 151 2240 l 183 2179 l 183 2179 z "},"":{"ha":319,"x_min":0,"x_max":307,"o":"m 143 1592 q 206 1574 179 1592 q 250 1525 232 1557 q 264 1489 258 1510 q 272 1449 269 1468 q 278 1404 276 1426 l 278 1300 l 175 1288 l 175 1396 q 174 1414 175 1399 q 169 1447 172 1429 q 160 1478 167 1464 q 143 1492 154 1492 q 131 1485 136 1492 q 121 1460 125 1479 q 114 1408 117 1442 q 111 1318 111 1374 l 111 1314 l 111 1311 l 111 1310 l 111 1307 q 112 1262 111 1293 q 119 1207 113 1231 q 149 1138 128 1183 q 190 1046 169 1092 q 228 963 210 1001 q 254 900 246 924 q 270 801 268 861 q 269 686 272 740 l 269 685 l 269 676 l 269 671 q 261 544 269 596 q 236 461 253 493 q 135 397 201 397 q 72 415 99 397 q 28 464 46 432 q 13 500 18 479 q 6 540 8 521 q 0 585 1 563 l 0 689 l 103 701 l 103 592 q 104 574 103 589 q 108 542 106 560 q 117 511 111 525 q 135 497 124 497 q 146 503 140 497 q 156 528 151 510 q 164 581 161 547 q 167 671 167 615 l 167 682 l 167 688 q 157 867 171 826 q 133 926 150 888 q 96 1004 115 964 q 51 1101 72 1056 q 22 1176 31 1147 q 10 1242 13 1207 q 8 1308 8 1278 l 8 1310 l 8 1318 q 16 1444 8 1393 q 42 1528 24 1496 q 143 1592 76 1592 m 250 1929 q 264 1893 258 1914 q 272 1853 269 1872 q 278 1808 276 1831 l 278 1704 l 175 1692 l 175 1800 q 174 1818 175 1803 q 169 1851 172 1833 q 160 1882 167 1868 q 143 1896 154 1896 q 131 1890 136 1896 q 121 1865 125 1883 q 114 1812 117 1846 q 111 1722 111 1778 l 111 1718 l 111 1714 l 111 1711 q 112 1672 111 1699 q 117 1622 113 1646 l 13 1622 q 9 1669 10 1646 q 8 1713 8 1692 l 8 1714 l 8 1722 q 16 1849 8 1797 q 42 1932 24 1900 q 143 1994 75 1994 q 206 1977 179 1994 q 250 1929 232 1960 m 271 369 q 271 321 271 346 q 269 272 271 296 l 269 264 l 269 258 q 261 132 269 183 q 236 47 253 81 q 135 -15 201 -15 q 72 2 99 -15 q 28 51 46 19 q 13 88 18 67 q 6 128 8 108 q 0 172 1 150 l 0 276 l 103 289 l 103 179 q 104 162 103 176 q 108 130 106 147 q 117 99 111 113 q 135 85 124 85 q 146 91 140 85 q 156 116 151 97 q 164 169 161 135 q 167 258 167 203 l 167 269 l 167 275 q 167 369 169 329 l 271 369 m 160 2172 l 192 2233 l 307 2233 l 226 2076 l 93 2076 l 11 2233 l 13 2233 l 128 2233 l 160 2172 l 160 2172 z "},"":{"ha":319,"x_min":0,"x_max":307,"o":"m 143 1592 q 206 1574 179 1592 q 250 1525 232 1557 q 264 1489 258 1510 q 272 1449 269 1468 q 278 1404 276 1426 l 278 1300 l 175 1288 l 175 1396 q 174 1414 175 1399 q 169 1447 172 1429 q 160 1478 167 1464 q 143 1492 154 1492 q 131 1485 136 1492 q 121 1460 125 1479 q 114 1408 117 1442 q 111 1318 111 1374 l 111 1314 l 111 1311 l 111 1310 l 111 1307 q 112 1262 111 1293 q 119 1207 113 1231 q 149 1138 128 1183 q 190 1046 169 1092 q 228 963 210 1001 q 254 900 246 924 q 270 801 268 861 q 269 686 272 740 l 269 685 l 269 676 l 269 671 q 261 544 269 596 q 236 461 253 493 q 135 397 201 397 q 72 415 99 397 q 28 464 46 432 q 13 500 18 479 q 6 540 8 521 q 0 585 1 563 l 0 689 l 103 701 l 103 592 q 104 574 103 589 q 108 542 106 560 q 117 511 111 525 q 135 497 124 497 q 146 503 140 497 q 156 528 151 510 q 164 581 161 547 q 167 671 167 615 l 167 682 l 167 688 q 157 867 171 826 q 133 926 150 888 q 96 1004 115 964 q 51 1101 72 1056 q 22 1176 31 1147 q 10 1242 13 1207 q 8 1308 8 1278 l 8 1310 l 8 1318 q 16 1444 8 1393 q 42 1528 24 1496 q 143 1592 76 1592 m 250 1929 q 264 1893 258 1914 q 272 1853 269 1872 q 278 1808 276 1831 l 278 1704 l 175 1692 l 175 1800 q 174 1818 175 1803 q 169 1851 172 1833 q 160 1882 167 1868 q 143 1896 154 1896 q 131 1890 136 1896 q 121 1865 125 1883 q 114 1812 117 1846 q 111 1722 111 1778 l 111 1718 l 111 1714 l 111 1711 q 112 1672 111 1699 q 117 1622 113 1646 l 13 1622 q 9 1669 10 1646 q 8 1713 8 1692 l 8 1714 l 8 1722 q 16 1849 8 1797 q 42 1932 24 1900 q 143 1994 75 1994 q 206 1977 179 1994 q 250 1929 232 1960 m 271 369 q 271 321 271 346 q 269 272 271 296 l 269 264 l 269 258 q 261 132 269 183 q 236 47 253 81 q 135 -15 201 -15 q 72 2 99 -15 q 28 51 46 19 q 13 88 18 67 q 6 128 8 108 q 0 172 1 150 l 0 276 l 103 289 l 103 179 q 104 162 103 176 q 108 130 106 147 q 117 99 111 113 q 135 85 124 85 q 146 91 140 85 q 156 116 151 97 q 164 169 161 135 q 167 258 167 203 l 167 269 l 167 275 q 167 369 169 329 l 271 369 m 160 2175 l 192 2236 l 307 2236 l 226 2079 l 93 2079 l 11 2236 l 13 2236 l 128 2236 l 160 2175 l 160 2175 z "},"":{"ha":329,"x_min":0,"x_max":288,"o":"m 143 1203 l 183 1579 l 288 1579 l 193 992 l 193 414 l 90 414 l 90 1010 l 0 1579 l 104 1579 l 143 1203 m 288 1983 l 229 1622 l 146 1622 l 183 1983 l 288 1983 m 142 1622 l 57 1622 l 0 1983 l 104 1983 l 142 1622 m 90 0 l 90 369 l 193 369 l 193 0 l 90 0 m 32 2081 l 32 2197 l 135 2197 l 135 2081 l 32 2081 m 168 2197 l 271 2197 l 271 2081 l 168 2081 l 168 2197 z "},"V":{"ha":389,"x_min":0,"x_max":347,"o":"m 174 672 l 244 1579 l 347 1579 l 257 414 l 90 414 l 0 1579 l 103 1579 l 174 672 m 347 1983 l 319 1622 l 217 1622 l 244 1983 l 347 1983 m 131 1622 l 28 1622 l 0 1983 l 103 1983 l 131 1622 m 174 260 l 182 369 l 286 369 l 257 0 l 90 0 l 63 369 l 165 369 l 174 260 z "},"A":{"ha":389,"x_min":0,"x_max":347,"o":"m 125 694 l 103 414 l 0 414 l 90 1579 l 257 1579 l 347 414 l 244 414 l 222 694 l 125 694 m 174 1321 l 133 797 l 214 797 l 174 1321 m 174 1725 l 165 1622 l 63 1622 l 90 1983 l 257 1983 l 285 1622 l 182 1622 l 174 1725 m 29 369 l 318 369 l 347 1 l 244 1 l 222 281 l 125 281 l 103 1 l 0 1 l 29 369 z "},"W":{"ha":633,"x_min":0,"x_max":592,"o":"m 418 672 l 489 1579 l 592 1579 l 501 414 l 335 414 l 296 917 l 257 414 l 90 414 l 0 1579 l 103 1579 l 174 672 l 244 1579 l 244 1579 l 347 1579 l 347 1579 l 418 672 m 592 1983 l 564 1622 l 461 1622 l 489 1983 l 592 1983 m 347 1983 l 375 1622 l 217 1622 l 244 1983 l 244 1983 l 347 1983 l 347 1983 m 131 1622 l 28 1622 l 0 1983 l 103 1983 l 131 1622 m 174 260 l 182 369 l 286 369 l 257 0 l 90 0 l 63 369 l 165 369 l 174 260 m 418 260 l 426 369 l 529 369 l 501 0 l 335 0 l 306 369 l 410 369 l 418 260 z "},"B":{"ha":378,"x_min":0,"x_max":336,"o":"m 335 1267 q 333 1235 335 1261 q 322 1175 331 1210 q 296 1101 314 1140 q 244 1028 278 1061 q 231 1015 238 1021 q 215 1004 224 1010 q 231 992 224 997 q 244 979 238 986 q 296 906 278 946 q 322 832 314 867 q 333 772 331 797 q 335 740 335 746 q 327 645 336 692 q 300 560 318 599 q 169 433 256 463 q 99 418 133 421 q 54 415 65 415 l 50 415 l 0 417 l 0 422 l 0 1540 l 0 1590 l 50 1592 q 92 1590 56 1592 q 169 1574 129 1588 q 300 1447 256 1544 q 327 1362 318 1408 q 335 1267 336 1315 m 232 740 q 231 760 232 742 q 224 803 229 778 q 206 856 218 828 q 171 907 193 885 q 103 944 142 936 l 103 739 l 103 522 q 120 526 111 525 q 138 531 129 528 q 207 603 182 546 q 226 666 219 631 q 232 739 233 701 l 232 740 m 232 1268 q 226 1341 233 1306 q 207 1406 219 1376 q 138 1476 182 1461 q 103 1485 121 1482 l 103 1268 l 103 1063 q 171 1101 144 1072 q 206 1152 193 1124 q 224 1206 218 1181 q 231 1249 229 1231 q 232 1267 232 1267 l 232 1268 m 103 1622 l 0 1622 l 0 1944 l 0 1994 l 50 1996 q 92 1994 56 1996 q 169 1978 129 1992 q 300 1851 256 1949 q 327 1766 318 1813 q 335 1671 336 1719 q 331 1622 335 1660 l 226 1622 q 231 1656 231 1643 q 232 1671 232 1669 l 232 1672 q 226 1745 233 1710 q 207 1808 219 1781 q 138 1881 182 1865 q 103 1889 121 1886 l 103 1672 l 103 1622 m 332 369 q 335 342 335 353 q 335 328 335 331 q 327 233 336 279 q 300 147 318 186 q 169 21 256 50 q 99 6 133 8 q 54 3 65 3 l 50 3 l 0 4 l 0 10 l 0 369 l 103 369 l 103 326 l 103 110 q 138 118 121 113 q 207 189 182 133 q 226 253 219 218 q 232 326 233 289 l 232 328 q 231 340 232 329 q 228 369 231 351 l 332 369 z "}}}
